<?xml version="1.0" encoding="utf-8"?>
<!-- Generator: Adobe Illustrator 18.1.1, SVG Export Plug-In . SVG Version: 6.00 Build 0)  -->
<svg version="1.1" id="Layer_1" xmlns="http://www.w3.org/2000/svg" xmlns:xlink="http://www.w3.org/1999/xlink" x="0px" y="0px"
	 viewBox="0 0 271.5 433.5" enable-background="new 0 0 271.5 433.5" xml:space="preserve">
<path fill="none" stroke="#000000" stroke-width="0.25" stroke-miterlimit="10" d="M82.9,23.9c0,0-38,24.7-50,48.7
	c0,0-16.7,24-12,76l6.7,23.3l6,8.7l7.3-60c0,0,7.8-15.3,10.6-18.3c0,0-9.3-13.3-5.3-22.7c0,0,10-19,15.7-22.7
	c5.7-3.7,19.3-11.7,45.7-3c0,0,36-3.3,58-8.3c0,0,25.3-3.3,48.7,7.7c0,0,18.3,16.7,23,34.3c0,0-1.7,22.3-4,30.3c0,0,7.3,25,4,71
	l7.7-12.3c0,0,13.7-49,12-78.7c0,0-19.3-54.7-49.7-68.7c0,0-49.3-30.7-102.3-13.7L82.9,23.9z"/>
<path fill="none" stroke="#000000" stroke-width="0.25" stroke-miterlimit="10" d="M111.2,140.6c0,0-27.3-12.3-39.7-9.7
	c0,0-18.7,10.7-19.7,16.3c0,0,15.3-5,31.7-2.3l27.7-0.3V140.6z"/>
<path fill="none" stroke="#000000" stroke-width="0.25" stroke-miterlimit="10" d="M154.2,143.2c0,0,9.7-8.7,15.3-10
	c0,0,22.7-3.7,31.3,0l16.7,12.7c0,0,0.3,6.7-4.7,4.3c-5-2.3-16.7-5-29.7-4.7S154.2,143.2,154.2,143.2z"/>
<path fill="none" stroke="#000000" stroke-width="0.25" stroke-miterlimit="10" d="M111.2,167.2c0,0-24.3-21.3-41.3-2
	C69.9,165.2,82.2,179.2,111.2,167.2z"/>
<path fill="none" stroke="#000000" stroke-width="0.25" stroke-miterlimit="10" d="M157.6,169.9c0,0,22.3-20.7,40,0
	C197.6,169.9,183.2,186.6,157.6,169.9z"/>
<path fill="none" stroke="#000000" stroke-width="0.25" stroke-miterlimit="10" d="M79.9,160.7c0,0-0.6,11.6,7.3,11.3
	c7.9-0.3,10.7-6.5,9.3-11.3"/>
<path fill="none" stroke="#000000" stroke-width="0.25" stroke-miterlimit="10" d="M171.6,164.6c0,0-1.8,11.6,7.7,11.3
	c9.5-0.3,9-11.3,9-11.3"/>
<path fill="none" stroke="#000000" stroke-width="0.25" stroke-miterlimit="10" d="M109.2,204.1c0,0-12.1,21,2.1,25.8
	c0,0,4.2,0.8,6.9-1.5"/>
<path fill="none" stroke="#000000" stroke-width="0.25" stroke-miterlimit="10" d="M154.2,208.1c0,0,14.4,23.5-7.8,23.5"/>
<path fill="none" stroke="#000000" stroke-width="0.25" stroke-miterlimit="10" d="M124.2,226.1c0,0-6.2-8.8-12-6.2s8.5,6.2,8.5,6.2
	"/>
<path fill="none" stroke="#000000" stroke-width="0.25" stroke-miterlimit="10" d="M136.9,226.1c0,0,2.7-7.9,13.8-4.2
	c0,0,3.7,5.5-4.3,6.7"/>
<path fill="none" stroke="#000000" stroke-width="0.25" stroke-miterlimit="10" d="M32.9,182.2c0,0-5,80.7,22.7,110
	c27.7,29.3,50.3,37.7,50.3,37.7s32,5,50,0s54.3-36.3,54.3-36.3s26.7-37.3,28-103.3"/>
<path fill="none" stroke="#000000" stroke-width="0.25" stroke-miterlimit="10" d="M26.2,173.1c0,0-8.8-10-14.2-1.1
	c0,0,4.2,20.4,4,33.4l14.8,31c0,0-5.4,19,6.5,13.2"/>
<path fill="none" stroke="#000000" stroke-width="0.25" stroke-miterlimit="10" d="M29.2,190.1c0,0-1.8-5.3-6.2-7.9
	c-4.5-2.6-8-6.3-8-6.3"/>
<path fill="none" stroke="#000000" stroke-width="0.25" stroke-miterlimit="10" d="M243.3,179.2L257,172c0,0,10.5,4.2,3.9,28.5
	l-21,42.3c0,0,6.1,21.6-12.8,14.3"/>
<path fill="none" stroke="#000000" stroke-width="0.25" stroke-miterlimit="10" d="M238.2,199.2c0,0,9.3-12.3,13.3-13
	c4-0.7,5.5-6.7,5.5-6.7"/>
<path fill="none" stroke="#000000" stroke-width="0.25" stroke-miterlimit="10" d="M239.6,204.1c0,0,8.5-1.3,8.1,5.4
	s-4.7,19.4-8.1,19"/>
<path fill="none" stroke="#000000" stroke-width="0.25" stroke-miterlimit="10" d="M25.9,208.1c0,0,0,16.4,6.6,16.6"/>
<path fill="none" stroke="#000000" stroke-width="0.25" stroke-miterlimit="10" d="M96.9,261.9l23-11.2c0,0,14.5,5.8,21,0l17.9,13.2
	l-12.4-2.2c0,0-20.4,2.2-28.3-2l-14.8,4.2c0,0,2.5,11,18.8,11.2s31.3-3.8,35.4-7"/>
<circle cx="88.5" cy="162.9" r="3.5"/>
<circle cx="179.8" cy="166.4" r="3.5"/>
<path fill="none" stroke="#000000" stroke-width="0.25" stroke-miterlimit="10" d="M55.6,292.2l-2,34.7c0,0-5.7,41.7,68.7,92.7h11.3
	c0,0,58-20.7,67.3-73.3l-2-40"/>
</svg>
