<?xml version="1.0" encoding="utf-8"?>
<!-- Generator: Adobe Illustrator 19.2.1, SVG Export Plug-In . SVG Version: 6.00 Build 0)  -->
<svg version="1.1" id="Layer_1" xmlns="http://www.w3.org/2000/svg" xmlns:xlink="http://www.w3.org/1999/xlink" x="0px" y="0px"
	 viewBox="0 0 80 80" enable-background="new 0 0 80 80" xml:space="preserve">
<g>
	<polygon fill="#CF87B9" points="29.8,44.4 25.4,60.2 67.7,44.4 73.6,30.3 	"/>
	<polygon fill="#FF87FF" points="25.4,60.2 8.9,54.2 13.9,39.8 29.8,44.4 	"/>
	<polyline fill="#FFBCFF" points="13.9,39.8 54.6,26.9 73.6,30.3 29.8,44.4 	"/>
</g>
<g>
	<g>
		<polyline fill="#D0D2D3" points="-54.7,-43.5 -36.8,-37.7 -34.4,13.5 -44.5,13.5 		"/>
		<polyline fill="#6D6E70" points="-36.8,-37.7 -23,-37.7 -25.1,13.5 -34.4,13.5 		"/>
		<polyline fill="#404041" points="-6,-43.5 -23.9,-37.7 -26.4,13.5 -13.6,13.5 		"/>
		<path fill="none" stroke="#231F20" stroke-miterlimit="10" d="M-53.4-43.8c7.1-2.4,14.4-3.9,21.9-4.6c2.2-0.2,4.5-0.3,6.7-0.3
			c6.1,0.1,12.1,1.6,17.5,4.3"/>
	</g>
	<polyline fill="#404041" points="-38.5,-46.3 -51.9,-43.2 -36.8,-38.8 	"/>
	<polyline fill="#808184" points="-38.5,-46.3 -25,-47.6 -24.2,-38.8 -36.8,-38.8 	"/>
	<polyline fill="#D0D2D3" points="-9.7,-43.8 -25,-47.6 -24.1,-38.8 	"/>
</g>
</svg>
