<?xml version="1.0" encoding="utf-8"?>
<!-- Generator: Adobe Illustrator 19.2.1, SVG Export Plug-In . SVG Version: 6.00 Build 0)  -->
<svg version="1.1" id="Layer_1" xmlns="http://www.w3.org/2000/svg" xmlns:xlink="http://www.w3.org/1999/xlink" x="0px" y="0px"
	 viewBox="0 0 48.8 136.2" enable-background="new 0 0 48.8 136.2" xml:space="preserve">
<path fill="#DEC203" d="M113.3,60.9"/>
<path fill="#231F20" d="M8.8,29.8c0.4-4.5,1.7-9,4.3-12.7C17.3,11.4,24.2,8.5,31,6.8c0.3,1.5-0.1,3.2-1.2,4.4c1.5-1,3.3-1.6,5.1-1.8
	c-0.2,1.2-0.5,2.4-0.7,3.6c1.9-0.5,3.8-1,5.6-1.4c-0.8,1.4-1.6,2.8-2.3,4.3c1.6-1,3.6-1.8,5.4-1.2c1.8,0.6,3.1,3,1.8,4.5
	c-4.5,1.5-9,3.7-11.8,7.6c-2,2.6-3,5.8-4,8.9c-1.3,3.9-2.6,7.8-3.9,11.8c-4.8,1.1-9.5-1.9-13.9-3.4c-1.2-0.4-1.5-0.3-2-1.3
	c-0.5-1-0.3-3.2-0.4-4.4C8.6,35.5,8.5,32.6,8.8,29.8z"/>
<path fill="#FFFFFF" d="M21.3,15.6c-4.8,4.7-7.5,11.5-7.2,18.3c0.1,1.1,0.4,2.5,1.5,2.7c1-2.9,1.1-6,1.8-9c1-4.1,3.1-7.9,6-11
	C25.8,14.2,23.1,13.8,21.3,15.6z"/>
<polyline fill="#6D6E70" points="9.1,42.6 10.3,57.3 24.7,58.9 25.1,47.3 "/>
<polygon fill="#E6E7E8" points="10.3,57.3 15.2,57.9 15.2,44.6 9.1,42.6 "/>
<path fill="#EC1C24" d="M10.3,57.3c0,0,11,57.4,11.9,60.4c1,4.1,11.3,22.7,9,0s-6.5-58.8-6.5-58.8"/>
<path fill="#E6E7E8" d="M15.2,57.9"/>
<path fill="#FFFFFF" stroke="#FFFFFF" stroke-width="0.72" stroke-miterlimit="10" d="M24.7,113.1c-0.1,0.4,0,0.8,0.1,1.2
	c0.2,1,0.4,2,0.7,3c0.7,2.5,1.7,4.9,3.1,7c1.4-0.1-0.1-6.3-0.4-7.4c-0.4-1.1-0.7-2.3-1.2-3.4C26.6,112.8,25.1,111.2,24.7,113.1z"/>
</svg>
