<?xml version="1.0" encoding="utf-8"?>
<!-- Generator: Adobe Illustrator 19.2.1, SVG Export Plug-In . SVG Version: 6.00 Build 0)  -->
<svg version="1.1" id="Layer_1" xmlns="http://www.w3.org/2000/svg" xmlns:xlink="http://www.w3.org/1999/xlink" x="0px" y="0px"
	 viewBox="0 0 80 80" enable-background="new 0 0 80 80" xml:space="preserve">
<g>
	<polygon fill="#CF87B9" points="104.3,-1.6 99.9,14.2 142.2,-1.6 148.1,-15.7 	"/>
	<polygon fill="#FF87FF" points="99.9,14.2 83.4,8.2 88.4,-6.2 104.3,-1.6 	"/>
	<polyline fill="#FFBCFF" points="88.4,-6.2 129.1,-19.1 148.1,-15.7 104.3,-1.6 	"/>
</g>
<g>
	<polyline fill="#D0D2D3" points="14.3,16.2 32.2,22.1 34.7,73.2 24.5,73.2 	"/>
	<polyline fill="#6D6E70" points="32.2,22.1 46.1,22.1 43.9,73.2 34.7,73.2 	"/>
	<polyline fill="#404041" points="63,16.2 45.1,22.1 42.7,73.2 55.5,73.2 	"/>
	<path fill="none" stroke="#231F20" stroke-miterlimit="10" d="M15.7,15.9c7.1-2.4,14.4-3.9,21.9-4.6c2.2-0.2,4.5-0.3,6.7-0.3
		c6.1,0.1,12.1,1.6,17.5,4.3"/>
</g>
<polyline fill="#404041" points="30.5,13.5 17.2,16.6 32.2,21 "/>
<polyline fill="#808184" points="30.5,13.5 44.1,12.2 44.8,21 32.2,21 "/>
<polyline fill="#D0D2D3" points="59.3,15.9 44.1,12.2 44.9,21 "/>
</svg>
