<?xml version="1.0" encoding="utf-8"?>
<!-- Generator: Adobe Illustrator 19.2.1, SVG Export Plug-In . SVG Version: 6.00 Build 0)  -->
<svg version="1.1" id="Layer_1" xmlns="http://www.w3.org/2000/svg" xmlns:xlink="http://www.w3.org/1999/xlink" x="0px" y="0px"
	 viewBox="0 0 20 20" enable-background="new 0 0 20 20" xml:space="preserve">
<g>
	<g>
		<path d="M1.9,10.1c4.2-0.6,8.3-0.8,12.2,1.1c1.2,0.6,5-1.9,4.3-2.3C14.1,6.8,9.3,7,4.7,7.7c-1,0.2-2.5,0.6-3.2,1.4
			C1,9.7,0.8,10.3,1.9,10.1L1.9,10.1z"/>
	</g>
</g>
<g>
	<g>
		<path d="M6,2.4C7.8,7.1,6.8,12,6.1,16.8c-0.2,1.4,4.8,1.8,5,0.2c0.8-5.1,1.7-10-0.2-15C10.3,0.6,5.4,0.8,6,2.4L6,2.4z"/>
	</g>
</g>
</svg>
