<?xml version="1.0" encoding="utf-8"?>
<!-- Generator: Adobe Illustrator 18.1.1, SVG Export Plug-In . SVG Version: 6.00 Build 0)  -->
<svg version="1.1" id="Layer_1" xmlns="http://www.w3.org/2000/svg" xmlns:xlink="http://www.w3.org/1999/xlink" x="0px" y="0px"
	 viewBox="0 0 600 379" enable-background="new 0 0 600 379" xml:space="preserve">
<g>
	<path fill="#005900" d="M402.7,265.9c0,0-1.5,0.1-4.2,0.3c-1.4,0.1-3,0.2-5,0.4c-0.2,0-0.5,0-0.8,0.1l-0.4,0l-0.5,0.1
		c-0.7,0.1-1.5,0.2-2.2,0.2c-1.5,0.2-3.2,0.3-4.9,0.5c-1.7,0.2-3.5,0.3-5.4,0.5c-1.8,0.1-3.6,0.2-5.5,0.3c-3.8,0.2-7.9,0.4-12.4,0.5
		c-2.2,0-4.5,0.1-6.8,0.1c-2.4,0-4.8-0.1-7.3-0.1c-4.9,0-10.2-0.3-15.6-0.6c-10.9-0.7-22.7-2-34.9-4.1c-12.3-2.1-25.1-5.1-37.9-9.1
		c-12.8-4-25.7-9.1-38-15.1c-12.4-6-24.3-13-35.5-20.7c-11.1-7.7-21.5-16.1-30.9-24.9c-9.4-8.8-17.9-17.8-25.5-27
		c-7.6-9.1-14.3-18.2-20.1-27.1c-5.9-8.8-10.9-17.4-15.2-25.3c-4.3-8-7.9-15.4-10.8-22c-3-6.6-5.3-12.5-7.1-17.3
		c-3.6-9.7-5.1-15.3-5.1-15.3s3.8,4.5,10.9,11.5c3.6,3.5,8,7.7,13.3,12.2c5.2,4.6,11.3,9.4,18,14.5c6.8,5,14.2,10.1,22.3,15
		c8.1,4.9,16.7,9.6,25.8,13.8c9,4.2,18.5,7.9,28.1,11c9.6,3,19.4,5.3,29,6.8c9.7,1.5,19.2,2.2,28.4,2.2c9.2,0,18-0.8,26.4-2.1
		c8.3-1.3,16.2-3.2,23.5-5.4c7.3-2.2,14-4.8,20-7.3c3-1.4,5.9-2.6,8.6-4c1.3-0.7,2.7-1.3,3.9-1.9c1.3-0.7,2.5-1.3,3.7-2
		c1.2-0.6,2.3-1.2,3.4-1.8c1.1-0.6,2.2-1.2,3.2-1.8c1-0.6,2-1.1,2.9-1.6c0.8-0.5,1.5-1,2.2-1.5c0.7-0.5,1.3-0.9,1.9-1.3
		c0.3-0.2,0.6-0.4,0.9-0.6l0.2-0.1l0.3-0.2c0.2-0.1,0.4-0.2,0.7-0.4c1.7-1,3.2-1.8,4.4-2.5c2.4-1.3,3.7-2,3.7-2L402.7,265.9z"/>
</g>
<polygon fill="none" stroke="#005900" stroke-width="90" stroke-miterlimit="10" points="410.5,166.6 421.6,175.7 417.5,189.5 "/>
</svg>
