<?xml version="1.0" encoding="utf-8"?>
<!-- Generator: Adobe Illustrator 18.1.1, SVG Export Plug-In . SVG Version: 6.00 Build 0)  -->
<svg version="1.1" id="Layer_1" xmlns="http://www.w3.org/2000/svg" xmlns:xlink="http://www.w3.org/1999/xlink" x="0px" y="0px"
	 viewBox="0 0 415 266" enable-background="new 0 0 415 266" xml:space="preserve">
<g>
	<polygon fill="none" stroke="#266AE0" stroke-width="0.144" stroke-miterlimit="10" points="989,136.6 989,136.8 989,137 
		989,137.1 993.1,137.1 993.1,137 993.1,136.8 993.1,136.6 993.1,136.4 989,136.4 	"/>
	<polygon fill="none" stroke="#266AE0" stroke-width="0.144" stroke-miterlimit="10" points="989,135.9 989,136.1 989,136.2 
		989,136.4 993.1,136.4 993.1,136.2 993.1,136.1 993.1,135.9 993.1,135.7 989,135.7 	"/>
	<polygon fill="none" stroke="#266AE0" stroke-width="0.144" stroke-miterlimit="10" points="989,137.3 989,137.5 989,137.7 
		989,137.8 989,138 993.1,138 993.1,137.8 993.1,137.7 993.1,137.5 993.1,137.3 993.1,137.1 989,137.1 	"/>
	<polygon fill="none" stroke="#266AE0" stroke-width="0.144" stroke-miterlimit="10" points="989,135.4 989,135.5 989,135.7 
		993.1,135.7 993.1,135.5 993.1,135.4 993.1,135.2 989,135.2 	"/>
	<rect x="989" y="133.2" fill="none" stroke="#266AE0" stroke-width="0.144" stroke-miterlimit="10" width="4.1" height="0.2"/>
	<polygon fill="none" stroke="#266AE0" stroke-width="0.144" stroke-miterlimit="10" points="989,133.6 989,133.7 989,133.9 
		993.1,133.9 993.1,133.7 993.1,133.6 993.1,133.4 989,133.4 	"/>
	<polygon fill="none" stroke="#266AE0" stroke-width="0.144" stroke-miterlimit="10" points="989,134.1 989,134.3 993.1,134.3 
		993.1,134.1 993.1,133.9 989,133.9 	"/>
	<polygon fill="none" stroke="#266AE0" stroke-width="0.144" stroke-miterlimit="10" points="989,144.4 989,144.6 989,144.8 
		989,145 993.1,145 993.1,144.8 993.1,144.6 993.1,144.4 993.1,144.3 989,144.3 	"/>
	<polygon fill="none" stroke="#266AE0" stroke-width="0.144" stroke-miterlimit="10" points="989,134.5 989,134.6 989,134.8 
		989,135 989,135.2 993.1,135.2 993.1,135 993.1,134.8 993.1,134.6 993.1,134.5 993.1,134.3 989,134.3 	"/>
	<polygon fill="none" stroke="#266AE0" stroke-width="0.144" stroke-miterlimit="10" points="989,138.2 989,138.4 989,138.6 
		989,138.7 993.1,138.7 993.1,138.6 993.1,138.4 993.1,138.2 993.1,138 989,138 	"/>
	<polygon fill="none" stroke="#266AE0" stroke-width="0.144" stroke-miterlimit="10" points="989,142.1 989,142.3 989,142.5 
		989,142.7 993.1,142.7 993.1,142.5 993.1,142.3 993.1,142.1 993.1,141.9 989,141.9 	"/>
	<polygon fill="none" stroke="#266AE0" stroke-width="0.144" stroke-miterlimit="10" points="989,142.8 989,143 989,143.2 
		993.1,143.2 993.1,143 993.1,142.8 993.1,142.7 989,142.7 	"/>
	<polygon fill="none" stroke="#266AE0" stroke-width="0.144" stroke-miterlimit="10" points="989,143.4 989,143.5 989,143.7 
		989,143.9 989,144.1 993.1,144.1 993.1,143.9 993.1,143.7 993.1,143.5 993.1,143.4 993.1,143.2 989,143.2 	"/>
	<rect x="989" y="144.1" fill="none" stroke="#266AE0" stroke-width="0.144" stroke-miterlimit="10" width="4.1" height="0.2"/>
	<polygon fill="none" stroke="#266AE0" stroke-width="0.144" stroke-miterlimit="10" points="989,138.9 989,139.1 989,139.3 
		989,139.5 989,139.6 993.1,139.6 993.1,139.5 993.1,139.3 993.1,139.1 993.1,138.9 993.1,138.7 989,138.7 	"/>
	<rect x="989" y="145" fill="none" stroke="#266AE0" stroke-width="0.144" stroke-miterlimit="10" width="4.1" height="0.2"/>
	<polygon fill="none" stroke="#266AE0" stroke-width="0.144" stroke-miterlimit="10" points="989,139.8 989,140 989,140.2 
		989,140.3 993.1,140.3 993.1,140.2 993.1,140 993.1,139.8 993.1,139.6 989,139.6 	"/>
	<polygon fill="none" stroke="#266AE0" stroke-width="0.144" stroke-miterlimit="10" points="989,140.5 989,140.7 989,140.9 
		989,141.1 989,141.2 993.1,141.2 993.1,141.1 993.1,140.9 993.1,140.7 993.1,140.5 993.1,140.3 989,140.3 	"/>
	<polygon fill="none" stroke="#266AE0" stroke-width="0.144" stroke-miterlimit="10" points="989,141.4 989,141.6 989,141.8 
		989,141.9 993.1,141.9 993.1,141.8 993.1,141.6 993.1,141.4 993.1,141.2 989,141.2 	"/>
	<polygon fill="none" stroke="#266AE0" stroke-width="0.144" stroke-miterlimit="10" points="987.2,130.9 988.8,130.4 990.2,129.5 
		991.3,128.6 992.4,127.3 992.5,127.2 992.2,127.5 991.1,128.6 989.9,129.7 988.5,130.4 987,130.9 985.4,131.3 983.8,131.4 
		985.4,131.4 	"/>
	<polygon fill="none" stroke="#266AE0" stroke-width="0.144" stroke-miterlimit="10" points="993.7,125.4 993.3,126.1 992.5,127.2 
		993.3,126.3 	"/>
	<polygon fill="none" stroke="#266AE0" stroke-width="0.144" stroke-miterlimit="10" points="991.3,128.6 990.2,129.5 988.8,130.4 
		989,130.4 989,130.5 989.2,130.7 989.3,130.9 989.5,131.1 989.5,131.3 989.7,131.6 991.3,130.5 992.7,129.5 994,128.2 995,126.6 
		995.9,125 996.5,123.2 996.8,121.5 997,119.7 996.6,119.7 996.3,119.7 995.9,119.7 995.6,119.9 995.4,119.9 995.2,120 995,120 
		995,120.2 994.9,121.8 994.5,123.2 994.2,124.7 993.7,125.4 993.3,126.3 992.5,127.2 992.4,127.3 	"/>
	<polygon fill="none" stroke="#266AE0" stroke-width="0.144" stroke-miterlimit="10" points="994.5,123.2 994,124.8 993.7,125.4 
		994.2,124.7 	"/>
	<polygon fill="none" stroke="#266AE0" stroke-width="0.144" stroke-miterlimit="10" points="953.7,131.6 952.3,131.6 950.9,131.6 
		950.3,131.6 950.2,131.6 950.5,131.7 950.9,131.8 951.6,131.8 953.2,132 955.7,132.5 957.1,132.7 958.7,133 958.7,132.7 
		958.7,132.3 958.7,132.1 958.7,132 958.7,131.8 958.7,131.6 958.7,131.4 956.9,131.4 955.1,131.6 	"/>
	<polygon fill="none" stroke="#266AE0" stroke-width="0.144" stroke-miterlimit="10" points="983.8,131.8 983.8,132 983.8,132.1 
		983.8,132.3 983.8,132.7 983.8,133 985.6,132.9 987.7,132.3 989.7,131.6 989.5,131.3 989.5,131.1 989.3,130.9 989.2,130.7 
		989,130.5 989,130.4 988.8,130.4 987.2,130.9 985.4,131.4 983.8,131.4 983.8,131.6 	"/>
	<polygon fill="none" stroke="#266AE0" stroke-width="0.144" stroke-miterlimit="10" points="995.4,119.9 995.6,119.9 995.9,119.7 
		996.3,119.7 996.6,119.7 997,119.7 997,80.5 996.6,80.5 996.3,80.5 995.9,80.7 995.6,80.7 995.4,80.7 995.2,80.8 995,81 995,120 
		995.2,120 	"/>
	<polygon fill="none" stroke="#266AE0" stroke-width="0.144" stroke-miterlimit="10" points="958.7,131.8 958.7,132 958.7,132.1 
		958.7,132.3 958.7,132.7 958.7,133 983.8,133 983.8,132.7 983.8,132.3 983.8,132.1 983.8,132 983.8,131.8 983.8,131.6 983.8,131.4 
		958.7,131.4 958.7,131.6 	"/>
	<polygon fill="none" stroke="#266AE0" stroke-width="0.144" stroke-miterlimit="10" points="993.1,132.9 993.1,132.7 989,132.7 
		989,132.9 989,133 989,133.2 993.1,133.2 993.1,133 	"/>
	<polygon fill="none" stroke="#266AE0" stroke-width="0.144" stroke-miterlimit="10" points="1014.5,131.8 1014.1,131.6 
		1013.8,131.6 1013.4,131.6 1013,131.6 1013,133.2 1015,133.2 1015,132.1 1015,132 1014.6,131.8 	"/>
	<polygon fill="none" stroke="#266AE0" stroke-width="0.144" stroke-miterlimit="10" points="1014.5,80.7 1014.1,80.7 1013.8,80.5 
		1013.4,80.5 1013,80.5 1013,131.6 1013.4,131.6 1013.8,131.6 1014.1,131.6 1014.5,131.8 1014.6,131.8 1015,132 1015,81 1015,80.8 
		1014.6,80.7 	"/>
	<polygon fill="none" stroke="#266AE0" stroke-width="0.144" stroke-miterlimit="10" points="993.1,132.5 993.1,132.3 989,132.3 
		989,132.5 989,132.7 993.1,132.7 	"/>
	<polygon fill="none" stroke="#266AE0" stroke-width="0.144" stroke-miterlimit="10" points="1013,66.1 1012.7,66.1 1012.1,66.1 
		1011.6,66.1 1012,67.8 1012.3,69.8 1012.5,71.8 1012.9,73.9 1012.9,76 1013,78.3 1013,80.5 1013.4,80.5 1013.8,80.5 1014.1,80.7 
		1014.5,80.7 1014.6,80.7 1015,80.8 1015,76.7 1014.6,72.8 1014.1,69.3 1013.6,66.2 1013.4,66.1 	"/>
	<polygon fill="none" stroke="#266AE0" stroke-width="0.144" stroke-miterlimit="10" points="995.4,80.7 995.6,80.7 995.9,80.7 
		996.3,80.5 996.6,80.5 997,80.5 997,78.3 997.2,76 997.4,73.9 997.5,71.8 997.7,69.8 998.1,67.8 998.6,66.1 997.9,66.1 997.5,66.1 
		997,66.1 996.8,66.1 996.6,66.2 995.9,69.3 995.4,72.8 995.2,76.7 995,81 995.2,80.8 	"/>
	<polygon fill="none" stroke="#266AE0" stroke-width="0.144" stroke-miterlimit="10" points="997,66.1 997.5,66.1 997.9,66.1 
		998.6,66.1 998.8,65.2 999.5,63.6 1000.4,62.5 1001.6,61.8 1002.7,61.6 1003.1,61.6 1003.1,61.2 1003.1,61.1 1003.1,60.9 
		1002.5,60.9 1001.5,61.1 1000.4,61.4 999.3,62 998.6,62.7 997.9,63.4 997.2,64.3 996.8,65.3 996.6,66.2 996.8,66.1 	"/>
	<polygon fill="none" stroke="#266AE0" stroke-width="0.144" stroke-miterlimit="10" points="1003.1,61.2 1003.1,61.6 1007,61.6 
		1007,61.2 1007,61.1 1007,60.9 1003.1,60.9 1003.1,61.1 	"/>
	<polygon fill="none" stroke="#266AE0" stroke-width="0.144" stroke-miterlimit="10" points="1007,61.2 1007,61.6 1008.4,61.8 
		1009.7,62.5 1010.4,63.2 1010.9,64.1 1011.6,66.1 1012.1,66.1 1012.7,66.1 1013,66.1 1013.4,66.1 1013.6,66.2 1013.2,65.3 
		1012.9,64.3 1012.1,63.4 1011.4,62.7 1010.5,62 1009.7,61.4 1008.6,61.1 1007.5,60.9 1007,60.9 1007,61.1 	"/>
	<polygon fill="none" stroke="#266AE0" stroke-width="0.144" stroke-miterlimit="10" points="953.2,133.2 958.7,133.2 958.7,133 
		957.1,132.7 955.7,132.5 953.2,132 951.6,131.8 950.9,131.8 952.5,132.5 	"/>
	<polygon fill="none" stroke="#266AE0" stroke-width="0.144" stroke-miterlimit="10" points="950.2,131.6 950,131.6 949.8,131.6 
		950.5,131.7 	"/>
	<polygon fill="none" stroke="#266AE0" stroke-width="0.144" stroke-miterlimit="10" points="1013,80.5 1013,78.3 1012.9,76 
		1012.9,73.9 1012.5,71.8 1012.3,69.8 1012,67.8 1011.6,66.1 998.6,66.1 998.1,67.8 997.7,69.8 997.5,71.8 997.4,73.9 997.2,76 
		997,78.3 997,80.5 997,119.7 996.8,121.5 996.5,123.2 995.9,125 995,126.6 994,128.2 992.7,129.5 991.3,130.5 989.7,131.6 
		1013,131.6 	"/>
	<polygon fill="none" stroke="#266AE0" stroke-width="0.144" stroke-miterlimit="10" points="1010.9,64.1 1010.4,63.2 1009.7,62.5 
		1008.4,61.8 1007,61.6 1003.1,61.6 1002.7,61.6 1001.6,61.8 1000.4,62.5 999.5,63.6 998.8,65.2 998.6,66.1 1011.6,66.1 	"/>
	<polygon fill="none" stroke="#266AE0" stroke-width="0.144" stroke-miterlimit="10" points="123.7,145.9 125.3,146.6 125.5,146.6 
		126,146.6 126.2,146.6 126.4,146.6 126.4,145.2 123,145.2 	"/>
	<polygon fill="none" stroke="#266AE0" stroke-width="0.144" stroke-miterlimit="10" points="125.3,146.6 124.6,146.6 123,146.2 
		120.3,145.9 118.9,145.5 117.5,145.3 117.5,145.7 117.5,145.9 117.5,146.2 117.5,146.4 117.5,146.6 117.5,146.8 119.3,146.8 
		121.1,146.8 122.5,146.8 123.7,146.8 125.2,146.8 125.9,146.8 126,146.6 125.5,146.6 	"/>
	<polygon fill="none" stroke="#266AE0" stroke-width="0.144" stroke-miterlimit="10" points="989,145.3 989,145.5 989,145.7 
		993.1,145.7 993.1,145.5 993.1,145.3 993.1,145.2 989,145.2 	"/>
	<polygon fill="none" stroke="#266AE0" stroke-width="0.144" stroke-miterlimit="10" points="989,146 993.1,146 993.1,145.9 
		993.1,145.7 989,145.7 989,145.9 	"/>
	<polygon fill="none" stroke="#266AE0" stroke-width="0.144" stroke-miterlimit="10" points="950,131.6 950.2,131.6 950.3,131.6 
		950.9,131.6 952.3,131.6 953.7,131.6 955.1,131.6 956.9,131.4 949.8,131.4 949.8,131.6 	"/>
	<polygon fill="none" stroke="#266AE0" stroke-width="0.144" stroke-miterlimit="10" points="953.4,145.5 953.7,145.2 953.2,145.2 
		952.5,145.9 950.9,146.6 951.6,146.6 951.9,146.5 952.6,146 	"/>
	<polygon fill="none" stroke="#266AE0" stroke-width="0.144" stroke-miterlimit="10" points="118.9,145.5 120.3,145.9 123,146.2 
		124.6,146.6 125.3,146.6 123.7,145.9 123,145.2 117.3,145.2 117.5,145.3 	"/>
	<polygon fill="none" stroke="#266AE0" stroke-width="0.144" stroke-miterlimit="10" points="117.5,146.4 117.5,146.2 117.5,145.9 
		117.5,145.7 117.5,145.3 92.4,145.3 92.4,145.7 92.4,145.9 92.4,146.2 92.4,146.4 92.4,146.6 92.4,146.8 117.5,146.8 117.5,146.6 	
		"/>
	<polygon fill="none" stroke="#266AE0" stroke-width="0.144" stroke-miterlimit="10" points="63.2,197.9 63.2,200 63.2,202.3 
		63.3,204.5 63.5,206.6 63.9,208.6 64.2,210.4 64.6,212.1 77.6,212.1 77.9,210.4 78.3,208.6 78.7,206.6 78.8,204.5 79,202.3 79,200 
		79.2,197.9 79.2,158.7 79.2,156.9 79.5,155.1 80.3,153.3 81.1,151.7 82.2,150.1 83.5,148.9 84.9,147.6 86.3,146.8 63.2,146.8 	"/>
	<polygon fill="none" stroke="#266AE0" stroke-width="0.144" stroke-miterlimit="10" points="991.3,147.6 992.7,148.9 994,150.1 
		995,151.7 995.9,153.3 996.5,155.1 996.8,156.9 997,158.7 997,197.9 997,200 997.2,202.3 997.4,204.5 997.5,206.6 997.7,208.6 
		998.1,210.4 998.6,212.1 1011.6,212.1 1012,210.4 1012.3,208.6 1012.5,206.6 1012.9,204.5 1012.9,202.3 1013,200 1013,197.9 
		1013,146.8 989.7,146.8 	"/>
	<polygon fill="none" stroke="#266AE0" stroke-width="0.144" stroke-miterlimit="10" points="999.1,214.3 999.7,215 1000.4,215.7 
		1000.6,215.9 1001.8,216.6 1003.1,216.8 1007,216.8 1007.3,216.8 1008.4,216.6 1009.7,215.9 1010.5,214.8 1011.3,213.2 
		1011.6,212.1 998.6,212.1 	"/>
	<polygon fill="none" stroke="#266AE0" stroke-width="0.144" stroke-miterlimit="10" points="64.9,213.2 65.5,214.8 66.5,215.9 
		67.8,216.6 68.9,216.8 69,216.8 73.1,216.8 74.4,216.6 75.6,215.9 75.8,215.7 76.5,215 77.1,214.3 77.6,212.1 64.6,212.1 	"/>
	<polygon fill="none" stroke="#266AE0" stroke-width="0.144" stroke-miterlimit="10" points="92.4,146.4 92.4,146.2 92.4,145.9 
		92.4,145.7 92.4,145.3 90.2,145.5 88.1,146 86.3,146.8 86.5,147.1 86.7,147.3 86.9,147.5 87,147.6 87,147.8 87.2,148 87.4,148 
		88.8,147.5 90.6,146.9 92.4,146.8 92.4,146.6 	"/>
	<polygon fill="none" stroke="#266AE0" stroke-width="0.144" stroke-miterlimit="10" points="90.2,145.5 92.4,145.3 117.5,145.3 
		117.3,145.2 63.2,145.2 63.2,146.8 86.3,146.8 88.1,146 	"/>
	<polygon fill="none" stroke="#266AE0" stroke-width="0.144" stroke-miterlimit="10" points="950.9,131.8 950.5,131.7 950.7,131.8 	
		"/>
	<polygon fill="none" stroke="#266AE0" stroke-width="0.144" stroke-miterlimit="10" points="953.4,145.5 952.6,146 951.9,146.5 
		953.2,146.2 955.7,145.9 957.3,145.5 958.7,145.3 958.7,145.2 953.7,145.2 	"/>
	<polygon fill="none" stroke="#266AE0" stroke-width="0.144" stroke-miterlimit="10" points="951.9,146.5 951.6,146.6 950.9,146.6 
		950.7,146.6 950.2,146.6 950,146.6 950.3,146.8 950.9,146.8 951.2,146.8 951.8,146.6 	"/>
	<polygon fill="none" stroke="#266AE0" stroke-width="0.144" stroke-miterlimit="10" points="958.7,146.4 958.7,146.2 958.7,145.9 
		958.7,145.7 958.7,145.3 957.3,145.5 955.7,145.9 953.2,146.2 951.9,146.5 951.8,146.6 951.2,146.8 952.3,146.8 953.7,146.8 
		955.1,146.8 956.9,146.8 958.7,146.8 958.7,146.6 	"/>
	<polygon fill="none" stroke="#266AE0" stroke-width="0.144" stroke-miterlimit="10" points="950.7,146.6 950.9,146.6 952.5,145.9 
		953.2,145.2 949.8,145.2 949.8,146.6 950,146.6 950.2,146.6 	"/>
	<polygon fill="none" stroke="#266AE0" stroke-width="0.144" stroke-miterlimit="10" points="953.7,145.2 958.7,145.2 989,145.2 
		989,145 989,144.8 989,144.6 989,144.4 989,144.3 989,144.1 989,143.9 989,143.7 989,143.5 989,143.4 989,143.2 989,143 989,142.8 
		989,142.7 989,142.5 989,142.3 989,142.1 989,141.9 989,141.8 989,141.6 989,141.4 989,141.2 989,141.1 989,140.9 989,140.7 
		989,140.5 989,140.3 989,140.2 989,140 989,139.8 989,139.6 989,139.5 989,139.3 989,139.1 989,138.9 989,138.7 989,138.6 
		989,138.4 989,138.2 989,138 989,137.8 989,137.7 989,137.5 989,137.3 989,137.1 989,137 989,136.8 989,136.6 989,136.4 989,136.2 
		989,136.1 989,135.9 989,135.7 989,135.5 989,135.4 989,135.2 989,135 989,134.8 989,134.6 989,134.5 989,134.3 989,134.1 
		989,133.9 989,133.7 989,133.6 989,133.4 989,133.2 958.7,133.2 953.2,133.2 949.8,133.2 943.7,133.2 943.7,133.4 943.7,133.7 
		943.7,134.5 943.7,135.4 943.7,136.2 943.7,137.3 943.7,138.6 943.7,139.8 943.7,140.9 943.7,142.1 943.7,143 943.7,143.9 
		943.7,144.4 943.7,145 943.7,145.2 949.8,145.2 953.2,145.2 	"/>
	<polygon fill="none" stroke="#266AE0" stroke-width="0.144" stroke-miterlimit="10" points="993.1,145.5 993.1,145.7 993.1,145.9 
		993.1,146 989,146 989,145.9 989,145.7 989,145.5 989,145.3 989,145.2 958.7,145.2 958.7,145.3 983.8,145.3 986,145.5 988.1,146 
		989.7,146.8 1013,146.8 1013,145.2 993.1,145.2 993.1,145.3 	"/>
	<polygon fill="none" stroke="#266AE0" stroke-width="0.144" stroke-miterlimit="10" points="983.8,146.4 983.8,146.2 983.8,145.9 
		983.8,145.7 983.8,145.3 958.7,145.3 958.7,145.7 958.7,145.9 958.7,146.2 958.7,146.4 958.7,146.6 958.7,146.8 983.8,146.8 
		983.8,146.6 	"/>
	<polygon fill="none" stroke="#266AE0" stroke-width="0.144" stroke-miterlimit="10" points="943.7,144.4 943.7,143.9 943.7,143 
		943.7,142.1 943.7,140.9 943.7,139.8 943.7,138.6 943.7,137.3 943.7,136.2 943.7,135.4 943.7,134.5 943.7,133.7 943.7,133.4 
		943.7,133.2 943.6,133.2 943.4,133.2 943.4,133.4 943.4,133.6 943.4,133.7 943.4,134.1 943.4,134.5 943.4,134.8 943.4,135.5 
		943.4,136.4 943.4,137.5 943.4,138.6 943.4,139.8 943.4,140.9 943.4,141.8 943.4,142.8 943.4,143.5 943.4,143.9 943.4,144.1 
		943.4,144.6 943.4,144.8 943.4,145 943.6,145.2 943.7,145.2 943.7,145 	"/>
	<polygon fill="none" stroke="#266AE0" stroke-width="0.144" stroke-miterlimit="10" points="952.5,132.5 950.9,131.8 950.7,131.8 
		950.5,131.7 949.8,131.6 949.8,133.2 953.2,133.2 	"/>
	<polygon fill="none" stroke="#266AE0" stroke-width="0.144" stroke-miterlimit="10" points="986,145.5 983.8,145.3 983.8,145.7 
		983.8,145.9 983.8,146.2 983.8,146.4 983.8,146.6 983.8,146.8 985.6,146.9 987.4,147.5 988.8,148 989,148 989,147.8 989.2,147.6 
		989.3,147.5 989.5,147.3 989.5,147.1 989.7,146.8 988.1,146 	"/>
	<polygon fill="none" stroke="#266AE0" stroke-width="0.144" stroke-miterlimit="10" points="132.8,135.5 132.8,136.4 132.8,137.5 
		132.8,138.6 132.8,139.8 132.8,140.9 132.8,141.8 132.8,142.8 132.8,143.5 132.8,143.9 133.7,143.9 133.7,143.5 133.7,142.8 
		133.7,141.8 133.7,140.9 133.7,139.8 133.7,138.6 133.7,137.5 133.7,136.4 133.7,135.5 133.7,134.8 133.7,134.5 132.8,134.5 
		132.8,134.8 	"/>
	<polygon fill="none" stroke="#266AE0" stroke-width="0.144" stroke-miterlimit="10" points="132.8,144.6 132.8,144.1 132.8,143.9 
		132.8,143.5 132.8,142.8 132.8,141.8 132.8,140.9 132.8,139.8 132.8,138.6 132.8,137.5 132.8,136.4 132.8,135.5 132.8,134.8 
		132.8,134.5 132.8,134.1 132.8,133.7 132.8,133.6 132.8,133.4 132.6,133.2 132.5,133.2 132.5,133.4 132.5,133.7 132.5,134.5 
		132.5,135.4 132.5,136.2 132.5,137.3 132.5,138.6 132.5,139.8 132.5,140.9 132.5,142.1 132.5,143 132.5,143.9 132.5,144.4 
		132.5,145 132.5,145.2 132.6,145.2 132.6,145 132.8,145 132.8,144.8 	"/>
	<polygon fill="none" stroke="#266AE0" stroke-width="0.144" stroke-miterlimit="10" points="943.4,144.6 943.4,144.1 943.4,143.9 
		942.5,143.9 942.5,144.1 942.5,144.6 942.5,144.8 942.5,145 942.5,145.5 943.4,145.5 943.4,145 943.4,144.8 	"/>
	<polygon fill="none" stroke="#266AE0" stroke-width="0.144" stroke-miterlimit="10" points="133.7,144.6 133.7,144.1 133.7,143.9 
		132.8,143.9 132.8,144.1 132.8,144.6 132.8,144.8 132.8,145 132.8,145.5 133.7,145.5 133.7,145 133.7,144.8 	"/>
	<polygon fill="none" stroke="#266AE0" stroke-width="0.144" stroke-miterlimit="10" points="942.5,135.5 942.5,136.4 942.5,137.5 
		942.5,138.6 942.5,139.8 942.5,140.9 942.5,141.8 942.5,142.8 942.5,143.5 942.5,143.9 943.4,143.9 943.4,143.5 943.4,142.8 
		943.4,141.8 943.4,140.9 943.4,139.8 943.4,138.6 943.4,137.5 943.4,136.4 943.4,135.5 943.4,134.8 943.4,134.5 942.5,134.5 
		942.5,134.8 	"/>
	<polygon fill="none" stroke="#266AE0" stroke-width="0.144" stroke-miterlimit="10" points="942.5,144.6 942.5,144.1 942.5,143.9 
		942.5,143.5 942.5,142.8 942.5,141.8 942.5,140.9 942.5,139.8 942.5,138.6 942.5,137.5 942.5,136.4 942.5,135.5 942.5,134.8 
		942.5,134.5 942.5,134.1 942.5,133.7 942.5,133.6 942.5,133.4 942.3,133.2 942.1,133.2 942.1,133.4 942.1,133.7 942.1,134.5 
		942.1,135.4 942.1,136.2 942.1,137.3 942.1,138.6 942.1,139.8 942.1,140.9 942.1,142.1 942.1,143 942.1,143.9 942.1,144.4 
		942.1,145 942.1,145.2 942.3,145.2 942.3,145 942.5,145 942.5,144.8 	"/>
	<polygon fill="none" stroke="#266AE0" stroke-width="0.144" stroke-miterlimit="10" points="134.1,144.4 134.1,143.9 134.1,143 
		134.1,142.1 134.1,140.9 134.1,139.8 134.1,138.6 134.1,137.3 134.1,136.2 134.1,135.4 134.1,134.5 134.1,133.7 134.1,133.4 
		134.1,133.2 133.9,133.2 133.7,133.2 133.7,133.4 133.7,133.6 133.7,133.7 133.7,134.1 133.7,134.5 133.7,134.8 133.7,135.5 
		133.7,136.4 133.7,137.5 133.7,138.6 133.7,139.8 133.7,140.9 133.7,141.8 133.7,142.8 133.7,143.5 133.7,143.9 133.7,144.1 
		133.7,144.6 133.7,144.8 133.7,145 133.9,145.2 134.1,145.2 134.1,145 	"/>
	<polygon fill="none" stroke="#266AE0" stroke-width="0.144" stroke-miterlimit="10" points="942.1,144.4 942.1,143.9 942.1,143 
		942.1,142.1 942.1,140.9 942.1,139.8 942.1,138.6 942.1,137.3 942.1,136.2 942.1,135.4 942.1,134.5 942.1,133.7 942.1,133.4 
		942.1,133.2 134.1,133.2 134.1,133.4 134.1,133.7 134.1,134.5 134.1,135.4 134.1,136.2 134.1,137.3 134.1,138.6 134.1,139.8 
		134.1,140.9 134.1,142.1 134.1,143 134.1,143.9 134.1,144.4 134.1,145 134.1,145.2 942.1,145.2 942.1,145 	"/>
	<polygon fill="none" stroke="#266AE0" stroke-width="0.144" stroke-miterlimit="10" points="989.7,131.6 987.7,132.3 985.6,132.9 
		983.8,133 958.7,133 958.7,133.2 989,133.2 989,133 989,132.9 989,132.7 989,132.5 989,132.3 993.1,132.3 993.1,132.5 993.1,132.7 
		993.1,132.9 993.1,133 993.1,133.2 1013,133.2 1013,131.6 	"/>
	<polygon fill="none" stroke="#266AE0" stroke-width="0.144" stroke-miterlimit="10" points="943.6,145.2 943.4,145 943.4,145.5 
		943.4,145.7 943.4,146.6 943.4,146.8 943.4,146.9 943.6,146.9 943.7,146.9 943.7,145.2 	"/>
	<polygon fill="none" stroke="#266AE0" stroke-width="0.144" stroke-miterlimit="10" points="949.8,145.2 943.7,145.2 943.7,146.9 
		949.8,146.9 949.8,146.6 	"/>
	<rect x="942.5" y="145.5" fill="none" stroke="#266AE0" stroke-width="0.144" stroke-miterlimit="10" width="0.9" height="0.2"/>
	<polygon fill="none" stroke="#266AE0" stroke-width="0.144" stroke-miterlimit="10" points="942.5,145 942.3,145 942.3,145.2 
		942.1,145.2 942.1,146.9 942.3,146.9 942.5,146.8 942.5,146.6 942.5,145.7 942.5,145.5 	"/>
	<rect x="134.1" y="145.2" fill="none" stroke="#266AE0" stroke-width="0.144" stroke-miterlimit="10" width="808.1" height="1.8"/>
	<polygon fill="none" stroke="#266AE0" stroke-width="0.144" stroke-miterlimit="10" points="992.9,151.6 993.3,152.3 993.6,152.7 
		993.3,152.1 	"/>
	<polygon fill="none" stroke="#266AE0" stroke-width="0.144" stroke-miterlimit="10" points="950.9,146.8 950.3,146.8 950,146.6 
		949.8,146.6 949.8,146.9 950.7,146.9 951.2,146.8 	"/>
	<polygon fill="none" stroke="#266AE0" stroke-width="0.144" stroke-miterlimit="10" points="993.6,152.7 994,153.5 994.4,154.7 
		994.2,153.5 	"/>
	<polygon fill="none" stroke="#266AE0" stroke-width="0.144" stroke-miterlimit="10" points="958.7,146.8 956.9,146.8 955.1,146.8 
		953.7,146.8 952.3,146.8 951.2,146.8 950.7,146.9 983.8,146.9 983.8,146.8 	"/>
	<polygon fill="none" stroke="#266AE0" stroke-width="0.144" stroke-miterlimit="10" points="991.3,149.8 990.2,148.9 988.8,148 
		987.4,147.5 985.6,146.9 983.8,146.8 983.8,146.9 985.4,147.1 987,147.5 988.5,148 989.9,148.7 991.1,149.8 992.2,150.9 
		992.9,151.6 992.4,150.9 	"/>
	<polygon fill="none" stroke="#266AE0" stroke-width="0.144" stroke-miterlimit="10" points="81.1,156.6 81.5,155.1 81.7,154.6 
		81.5,154.9 	"/>
	<polygon fill="none" stroke="#266AE0" stroke-width="0.144" stroke-miterlimit="10" points="133.9,145.2 133.7,145 133.7,145.5 
		133.7,145.7 133.7,146.6 133.7,146.8 133.7,146.9 133.9,146.9 134.1,146.9 134.1,145.2 	"/>
	<polygon fill="none" stroke="#266AE0" stroke-width="0.144" stroke-miterlimit="10" points="80.8,158.5 80.6,158.5 80.3,158.7 
		79.9,158.7 79.5,158.7 79.2,158.7 79.2,197.9 79.5,197.9 79.9,197.7 80.3,197.7 80.6,197.7 80.8,197.5 81,197.5 81.1,197.3 
		81.1,158.3 81,158.3 	"/>
	<polygon fill="none" stroke="#266AE0" stroke-width="0.144" stroke-miterlimit="10" points="80.8,197.5 80.6,197.7 80.3,197.7 
		79.9,197.7 79.5,197.9 79.2,197.9 79,200 79,202.3 78.8,204.5 78.7,206.6 78.3,208.6 77.9,210.4 77.6,212.1 78.1,212.3 78.7,212.3 
		79,212.3 79.4,212.3 79.5,212.1 80.3,209.1 80.6,205.4 81,201.4 81.1,197.3 81,197.5 	"/>
	<polygon fill="none" stroke="#266AE0" stroke-width="0.144" stroke-miterlimit="10" points="82.8,152.3 83.6,150.9 84.7,149.8 
		86,148.9 87.4,148 87.2,148 87,147.8 87,147.6 86.9,147.5 86.7,147.3 86.5,147.1 86.3,146.8 84.9,147.6 83.5,148.9 82.2,150.1 
		81.1,151.7 80.3,153.3 79.5,155.1 79.2,156.9 79.2,158.7 79.5,158.7 79.9,158.7 80.3,158.7 80.6,158.5 80.8,158.5 81,158.3 
		81.1,158.3 81.1,158.2 81.1,156.6 81.5,154.9 81.7,154.6 82,153.5 	"/>
	<polygon fill="none" stroke="#266AE0" stroke-width="0.144" stroke-miterlimit="10" points="126.4,145.2 126.4,146.6 126.2,146.6 
		126,146.6 125.9,146.8 125.2,146.8 123.7,146.8 122.5,146.8 121.1,146.8 119.3,146.8 117.5,146.8 92.4,146.8 92.4,146.9 
		132.5,146.9 132.5,145.2 	"/>
	<rect x="132.8" y="145.5" fill="none" stroke="#266AE0" stroke-width="0.144" stroke-miterlimit="10" width="0.9" height="0.2"/>
	<polygon fill="none" stroke="#266AE0" stroke-width="0.144" stroke-miterlimit="10" points="132.8,145 132.6,145 132.6,145.2 
		132.5,145.2 132.5,146.9 132.6,146.9 132.8,146.8 132.8,146.6 132.8,145.7 132.8,145.5 	"/>
	<polygon fill="none" stroke="#266AE0" stroke-width="0.144" stroke-miterlimit="10" points="90.6,146.9 88.8,147.5 87.4,148 
		86,148.9 84.7,149.8 83.6,150.9 82.8,152.3 82,153.5 81.7,154.6 82.2,153.5 82.9,152.1 83.8,150.9 85.1,149.8 86.3,148.7 87.7,148 
		89.2,147.5 90.8,147.1 92.4,146.9 92.4,146.8 	"/>
	<polygon fill="none" stroke="#266AE0" stroke-width="0.144" stroke-miterlimit="10" points="1144.2,140.7 1144.3,140.2 
		1144.3,139.5 1144.3,138.7 1144.3,138.2 1144.2,137.7 1144,137.3 1143.8,137.1 1142.6,137.1 1142,137.1 1141.7,137.1 1141.5,137.1 
		1141.3,137.1 1140.8,137.1 1140.2,137.1 1139.5,137.1 1138.8,137.1 1137.9,137.1 1137,137.1 1136.5,137.1 1134.5,137.1 
		1132.2,137.1 1129.5,137.1 1125.1,137.1 1120.3,137.1 1114.9,137.1 1109.2,137.1 1103.5,137.1 1098.4,137.1 1093.2,137.1 
		1087.9,137.1 1083.8,137.1 1079.3,137.1 1074.7,137.1 1069.9,137.1 1066.5,137.1 1063.1,137.1 1059.4,137.1 1054,137.1 
		1048.5,137.1 1046,137.1 1043.7,137.1 1041.2,137.1 1038.7,137.1 1035.7,137.1 1033,137.1 1030,137.1 1026.6,137.1 1022.8,137.1 
		1019.1,137.1 1019.1,137.3 1019.1,137.7 1019.1,138.2 1019.1,138.7 1019.1,139.5 1019.1,140.2 1019.1,140.7 1019.1,141.1 
		1019.1,141.2 1023.2,141.2 1026.9,141.2 1030.5,141.2 1033.7,141.2 1036.6,141.2 1039,141.2 1042.1,141.2 1045.3,141.2 
		1048.5,141.2 1054,141.2 1059.4,141.2 1063.1,141.2 1066.5,141.2 1069.9,141.2 1074.7,141.2 1079.3,141.2 1083.8,141.2 
		1087.9,141.2 1093.2,141.2 1098.4,141.2 1103.5,141.2 1109.2,141.2 1114.9,141.2 1120.3,141.2 1125.1,141.2 1129.5,141.2 
		1131.2,141.2 1132.8,141.2 1134,141.2 1135.2,141.2 1136.3,141.2 1137.2,141.2 1138.1,141.2 1139,141.2 1139.9,141.2 1140.8,141.2 
		1141.1,141.2 1141.5,141.2 1141.7,141.2 1142,141.2 1142.6,141.2 1143.8,141.2 1144,141.1 	"/>
	<polygon fill="none" stroke="#266AE0" stroke-width="0.144" stroke-miterlimit="10" points="994.4,154.7 994.5,155.1 994.9,156.6 
		994.5,154.9 	"/>
	<polygon fill="none" stroke="#266AE0" stroke-width="0.144" stroke-miterlimit="10" points="1015,144.1 1015,143.4 1015,142.5 
		1015,141.4 1015,140.3 1015,139.1 1015,138 1015,136.8 1015,135.9 1015,135 1015,134.1 1015,133.6 1015,133.2 1013,133.2 
		993.1,133.2 993.1,133.4 993.1,133.6 993.1,133.7 993.1,133.9 993.1,134.1 993.1,134.3 993.1,134.5 993.1,134.6 993.1,134.8 
		993.1,135 993.1,135.2 993.1,135.4 993.1,135.5 993.1,135.7 993.1,135.9 993.1,136.1 993.1,136.2 993.1,136.4 993.1,136.6 
		993.1,136.8 993.1,137 993.1,137.1 993.1,137.3 993.1,137.5 993.1,137.7 993.1,137.8 993.1,138 993.1,138.2 993.1,138.4 
		993.1,138.6 993.1,138.7 993.1,138.9 993.1,139.1 993.1,139.3 993.1,139.5 993.1,139.6 993.1,139.8 993.1,140 993.1,140.2 
		993.1,140.3 993.1,140.5 993.1,140.7 993.1,140.9 993.1,141.1 993.1,141.2 993.1,141.4 993.1,141.6 993.1,141.8 993.1,141.9 
		993.1,142.1 993.1,142.3 993.1,142.5 993.1,142.7 993.1,142.8 993.1,143 993.1,143.2 993.1,143.4 993.1,143.5 993.1,143.7 
		993.1,143.9 993.1,144.1 993.1,144.3 993.1,144.4 993.1,144.6 993.1,144.8 993.1,145 993.1,145.2 1013,145.2 1015,145.2 
		1015,144.8 	"/>
	<polygon fill="none" stroke="#266AE0" stroke-width="0.144" stroke-miterlimit="10" points="1163.6,140.7 1163.6,140.2 
		1163.4,139.5 1163.4,138.7 1163.6,138.2 1163.6,137.7 1163.8,137.3 1163.9,137.1 1158.6,137.1 1153.2,137.1 1148.3,137.1 
		1143.8,137.1 1144,137.3 1144.2,137.7 1144.3,138.2 1144.3,138.7 1144.3,139.5 1144.3,140.2 1144.2,140.7 1144,141.1 1143.8,141.2 
		1148.3,141.2 1153.2,141.2 1158.6,141.2 1163.9,141.2 1163.8,141.1 	"/>
	<polygon fill="none" stroke="#266AE0" stroke-width="0.144" stroke-miterlimit="10" points="1013,146.8 1013.4,146.8 1013.8,146.8 
		1014.1,146.8 1014.5,146.6 1014.6,146.6 1015,146.4 1015,146.2 1015,145.2 1013,145.2 	"/>
	<polygon fill="none" stroke="#266AE0" stroke-width="0.144" stroke-miterlimit="10" points="1421.7,140.7 1421.5,140.2 
		1421.5,139.5 1421.5,138.7 1421.5,138.2 1421.7,137.7 1421.9,137.3 1422.1,137.1 1163.9,137.1 1163.8,137.3 1163.6,137.7 
		1163.6,138.2 1163.4,138.7 1163.4,139.5 1163.6,140.2 1163.6,140.7 1163.8,141.1 1163.9,141.2 1422.1,141.2 1421.9,141.1 	"/>
	<polygon fill="none" stroke="#266AE0" stroke-width="0.144" stroke-miterlimit="10" points="1422.4,138.2 1422.4,137.7 
		1422.2,137.3 1422.1,137.1 1421.9,137.3 1421.7,137.7 1421.5,138.2 1421.5,138.7 1421.5,139.5 1421.5,140.2 1421.7,140.7 
		1421.9,141.1 1422.1,141.2 1422.2,141.1 1422.4,140.7 1422.4,140.2 1422.6,139.5 1422.6,138.7 	"/>
	<polygon fill="none" stroke="#266AE0" stroke-width="0.144" stroke-miterlimit="10" points="1019.1,140.7 1019.1,140.2 
		1019.1,139.5 1019.1,138.7 1019.1,138.2 1019.1,137.7 1019.1,137.3 1019.1,137.1 1018.9,136.4 1018.7,135.7 1018.4,135 
		1017.8,134.3 1017.3,133.7 1016.6,133.4 1015.9,133.2 1015,133.2 1015,133.6 1015,134.1 1015,135 1015,135.9 1015,136.8 1015,138 
		1015,139.1 1015,140.3 1015,141.4 1015,142.5 1015,143.4 1015,144.1 1015,144.8 1015,145.2 1015.9,145.2 1016.6,144.8 
		1017.3,144.4 1017.8,144.1 1018.4,143.4 1018.7,142.7 1018.9,141.9 1019.1,141.2 1019.1,141.1 	"/>
	<polygon fill="none" stroke="#266AE0" stroke-width="0.144" stroke-miterlimit="10" points="997,212.3 997.5,212.3 997.9,212.3 
		998.6,212.1 998.1,210.4 997.7,208.6 997.5,206.6 997.4,204.5 997.2,202.3 997,200 997,197.9 996.6,197.9 996.3,197.7 995.9,197.7 
		995.6,197.7 995.4,197.5 995.2,197.5 995,197.3 995.2,201.4 995.4,205.4 995.9,209.1 996.6,212.1 996.8,212.3 	"/>
	<polygon fill="none" stroke="#266AE0" stroke-width="0.144" stroke-miterlimit="10" points="995.4,197.5 995.6,197.7 995.9,197.7 
		996.3,197.7 996.6,197.9 997,197.9 997,158.7 996.6,158.7 996.3,158.7 995.9,158.7 995.6,158.5 995.4,158.5 995.2,158.3 995,158.3 
		995,197.3 995.2,197.5 	"/>
	<polygon fill="none" stroke="#266AE0" stroke-width="0.144" stroke-miterlimit="10" points="995.4,158.5 995.6,158.5 995.9,158.7 
		996.3,158.7 996.6,158.7 997,158.7 996.8,156.9 996.5,155.1 995.9,153.3 995,151.7 994,150.1 992.7,148.9 991.3,147.6 989.7,146.8 
		989.5,147.1 989.5,147.3 989.3,147.5 989.2,147.6 989,147.8 989,148 988.8,148 990.2,148.9 991.3,149.8 992.4,150.9 992.9,151.6 
		993.3,152.1 993.6,152.7 994.2,153.5 994.4,154.7 994.5,154.9 994.9,156.6 995,158.2 995,158.3 995.2,158.3 	"/>
	<polygon fill="none" stroke="#266AE0" stroke-width="0.144" stroke-miterlimit="10" points="1003.1,216.8 1001.8,216.6 
		1000.6,215.9 1000.4,215.7 999.7,215 999.1,214.3 998.6,212.1 997.9,212.3 997.5,212.3 997,212.3 996.8,212.3 996.6,212.1 
		996.8,213 997.4,214.1 997.9,215 998.6,215.7 999.5,216.4 1000.4,216.9 1001.5,217.3 1002.5,217.3 1003.1,217.3 1003.1,217.1 	"/>
	<polygon fill="none" stroke="#266AE0" stroke-width="0.144" stroke-miterlimit="10" points="1007,216.8 1003.1,216.8 1003.1,217.1 
		1003.1,217.3 1007,217.3 1007,217.1 	"/>
	<polygon fill="none" stroke="#266AE0" stroke-width="0.144" stroke-miterlimit="10" points="1014.5,197.7 1014.1,197.7 
		1013.8,197.7 1013.4,197.9 1013,197.9 1013,200 1012.9,202.3 1012.9,204.5 1012.5,206.6 1012.3,208.6 1012,210.4 1011.6,212.1 
		1012.1,212.3 1012.7,212.3 1013,212.3 1013.4,212.3 1013.6,212.1 1014.1,209.1 1014.6,205.4 1015,201.4 1015,197.5 1014.6,197.5 	
		"/>
	<polygon fill="none" stroke="#266AE0" stroke-width="0.144" stroke-miterlimit="10" points="1013,212.3 1012.7,212.3 1012.1,212.3 
		1011.6,212.1 1011.3,213.2 1010.5,214.8 1009.7,215.9 1008.4,216.6 1007.3,216.8 1007,216.8 1007,217.1 1007,217.3 1007.5,217.3 
		1008.6,217.1 1009.7,216.9 1010.7,216.4 1011.6,215.7 1012.3,215 1012.9,214.1 1013.2,213 1013.6,212.1 1013.4,212.3 	"/>
	<polygon fill="none" stroke="#266AE0" stroke-width="0.144" stroke-miterlimit="10" points="1014.5,146.6 1014.1,146.8 
		1013.8,146.8 1013.4,146.8 1013,146.8 1013,197.9 1013.4,197.9 1013.8,197.7 1014.1,197.7 1014.5,197.7 1014.6,197.5 1015,197.5 
		1015,197.3 1015,146.4 1014.6,146.6 	"/>
	<polygon fill="none" stroke="#266AE0" stroke-width="0.144" stroke-miterlimit="10" points="92.4,131.8 92.4,132 92.4,132.1 
		92.4,132.3 92.4,132.7 92.4,133 117.5,133 117.5,132.7 117.5,132.3 117.5,132.1 117.5,132 117.5,131.8 117.5,131.6 117.5,131.4 
		92.4,131.4 92.4,131.6 	"/>
	<polygon fill="none" stroke="#266AE0" stroke-width="0.144" stroke-miterlimit="10" points="125.3,131.8 124.6,131.8 123,132 
		120.3,132.5 118.9,132.7 117.5,133 117.3,133.2 123,133.2 123.7,132.5 	"/>
	<polygon fill="none" stroke="#266AE0" stroke-width="0.144" stroke-miterlimit="10" points="79,212.3 78.7,212.3 78.1,212.3 
		77.6,212.1 77.1,214.3 76.5,215 75.8,215.7 75.6,215.9 74.4,216.6 73.1,216.8 73.1,217.1 73.1,217.3 74,217.3 75.1,217.1 
		76.2,216.8 77.1,216.1 77.9,215.3 78.5,214.6 79,213.7 79.4,212.7 79.5,212.1 79.4,212.3 	"/>
	<polygon fill="none" stroke="#266AE0" stroke-width="0.144" stroke-miterlimit="10" points="125.7,131.7 125.3,131.8 125.5,131.8 	
		"/>
	<polygon fill="none" stroke="#266AE0" stroke-width="0.144" stroke-miterlimit="10" points="92.4,133 90.4,132.9 88.5,132.3 
		86.3,131.6 63.2,131.6 63.2,133.2 117.3,133.2 117.5,133 	"/>
	<polygon fill="none" stroke="#266AE0" stroke-width="0.144" stroke-miterlimit="10" points="126.2,131.6 126,131.6 125.7,131.7 
		126.4,131.6 	"/>
	<polygon fill="none" stroke="#266AE0" stroke-width="0.144" stroke-miterlimit="10" points="949.8,133.2 949.8,131.6 949.8,131.4 
		943.7,131.4 943.7,133.2 	"/>
	<polygon fill="none" stroke="#266AE0" stroke-width="0.144" stroke-miterlimit="10" points="125.7,131.7 125.5,131.8 125.3,131.8 
		123.7,132.5 123,133.2 126.4,133.2 126.4,131.6 	"/>
	<polygon fill="none" stroke="#266AE0" stroke-width="0.144" stroke-miterlimit="10" points="117.5,131.8 117.5,132 117.5,132.1 
		117.5,132.3 117.5,132.7 117.5,133 118.9,132.7 120.3,132.5 123,132 124.6,131.8 125.3,131.8 125.7,131.7 126,131.6 125.9,131.6 
		125.2,131.6 123.7,131.6 122.5,131.6 121.1,131.6 119.3,131.4 117.5,131.4 117.5,131.6 	"/>
	<polygon fill="none" stroke="#266AE0" stroke-width="0.144" stroke-miterlimit="10" points="122.5,131.6 123.7,131.6 125.2,131.6 
		125.9,131.6 126,131.6 126.2,131.6 126.4,131.6 126.4,133.2 132.5,133.2 132.5,131.4 119.3,131.4 121.1,131.6 	"/>
	<polygon fill="none" stroke="#266AE0" stroke-width="0.144" stroke-miterlimit="10" points="133.9,133.2 134.1,133.2 134.1,131.4 
		133.9,131.4 133.7,131.4 133.7,131.6 133.7,131.8 133.7,132.7 133.7,133.2 	"/>
	<polygon fill="none" stroke="#266AE0" stroke-width="0.144" stroke-miterlimit="10" points="942.3,133.2 942.5,133.4 942.5,132.7 
		942.5,131.8 942.5,131.6 942.3,131.4 942.1,131.4 942.1,133.2 	"/>
	<polygon fill="none" stroke="#266AE0" stroke-width="0.144" stroke-miterlimit="10" points="942.5,133.6 942.5,133.7 942.5,134.1 
		942.5,134.5 943.4,134.5 943.4,134.1 943.4,133.7 943.4,133.6 943.4,133.4 943.4,133.2 943.4,132.7 942.5,132.7 942.5,133.4 	"/>
	<polygon fill="none" stroke="#266AE0" stroke-width="0.144" stroke-miterlimit="10" points="77.4,65.2 76.7,63.6 75.6,62.5 
		74.6,61.8 73.3,61.6 73.1,61.6 69,61.6 67.8,61.8 66.5,62.5 66.4,62.5 65.8,63.2 65.3,64.1 64.6,66.1 77.6,66.1 	"/>
	<polygon fill="none" stroke="#266AE0" stroke-width="0.144" stroke-miterlimit="10" points="943.6,133.2 943.7,133.2 943.7,131.4 
		943.6,131.4 943.4,131.4 943.4,131.6 943.4,131.8 943.4,132.7 943.4,133.2 	"/>
	<rect x="134.1" y="131.4" fill="none" stroke="#266AE0" stroke-width="0.144" stroke-miterlimit="10" width="808.1" height="1.8"/>
	<polygon fill="none" stroke="#266AE0" stroke-width="0.144" stroke-miterlimit="10" points="132.6,133.2 132.8,133.4 132.8,132.7 
		132.8,131.8 132.8,131.6 132.6,131.4 132.5,131.4 132.5,133.2 	"/>
	<polygon fill="none" stroke="#266AE0" stroke-width="0.144" stroke-miterlimit="10" points="89,130.9 87.4,130.4 87.2,130.4 
		87,130.5 87,130.7 86.9,130.9 86.7,131.1 86.5,131.3 86.3,131.6 88.5,132.3 90.4,132.9 92.4,133 92.4,132.7 92.4,132.3 92.4,132.1 
		92.4,132 92.4,131.8 92.4,131.6 92.4,131.4 90.8,131.4 	"/>
	<polygon fill="none" stroke="#266AE0" stroke-width="0.144" stroke-miterlimit="10" points="132.8,133.6 132.8,133.7 132.8,134.1 
		132.8,134.5 133.7,134.5 133.7,134.1 133.7,133.7 133.7,133.6 133.7,133.4 133.7,133.2 133.7,132.7 132.8,132.7 132.8,133.4 	"/>
	<polygon fill="none" stroke="#266AE0" stroke-width="0.144" stroke-miterlimit="10" points="84.9,130.5 83.5,129.5 82.2,128.2 
		81.1,126.6 80.3,125 79.5,123.2 79.2,121.5 79.2,119.7 79.2,80.5 79,78.3 79,76 78.8,73.9 78.7,71.8 78.3,69.8 77.9,67.8 
		77.6,66.1 64.6,66.1 64.2,67.8 63.9,69.8 63.5,71.8 63.3,73.9 63.2,76 63.2,78.3 63.2,80.5 63.2,131.6 86.3,131.6 	"/>
	<polygon fill="none" stroke="#266AE0" stroke-width="0.144" stroke-miterlimit="10" points="117.3,145.2 123,145.2 126.4,145.2 
		132.5,145.2 132.5,145 132.5,144.4 132.5,143.9 132.5,143 132.5,142.1 132.5,140.9 132.5,139.8 132.5,138.6 132.5,137.3 
		132.5,136.2 132.5,135.4 132.5,134.5 132.5,133.7 132.5,133.4 132.5,133.2 126.4,133.2 123,133.2 117.3,133.2 63.2,133.2 61,133.2 
		61,133.6 61,134.1 61,135 61,135.9 61,136.8 61,138 61,139.1 61,140.3 61,141.4 61,142.5 61,143.4 61,144.1 61,144.8 61,145.2 
		63.2,145.2 	"/>
	<polygon fill="none" stroke="#266AE0" stroke-width="0.144" stroke-miterlimit="10" points="61.2,197.5 61.4,197.5 61.7,197.7 
		61.9,197.7 62.3,197.7 62.6,197.9 63.2,197.9 63.2,146.8 62.6,146.8 62.3,146.8 61.9,146.8 61.7,146.6 61.4,146.6 61.2,146.4 
		61,146.2 61,197.3 61.2,197.3 	"/>
	<polygon fill="none" stroke="#266AE0" stroke-width="0.144" stroke-miterlimit="10" points="61.4,146.6 61.7,146.6 61.9,146.8 
		62.3,146.8 62.6,146.8 63.2,146.8 63.2,145.2 61,145.2 61,146.2 61.2,146.4 	"/>
	<polyline fill="none" stroke="#266AE0" stroke-width="0.144" stroke-miterlimit="10" points="64.9,145.2 64.9,144.8 64.9,144.1 
		64.9,143.4 64.9,142.5 64.9,141.4 64.9,140.3 64.9,139.1 64.9,138 64.9,136.8 64.9,135.9 64.9,135 64.9,134.1 64.9,133.6 
		64.9,133.2 64.2,133.2 63.5,133.4 62.8,133.7 62.1,134.3 61.7,135 61.4,135.7 61,136.4 61,137.1 61,137.3 61,137.7 61,138.2 
		61,138.7 61,139.5 61,140.2 61,140.7 61,141.1 61,141.2 61,141.9 61.4,142.7 61.7,143.4 62.1,144.1 62.8,144.4 63.5,144.8 
		64.2,145.2 64.9,145.2 	"/>
	<polygon fill="none" stroke="#266AE0" stroke-width="0.144" stroke-miterlimit="10" points="63.2,212.3 63.5,212.3 64,212.3 
		64.6,212.1 64.2,210.4 63.9,208.6 63.5,206.6 63.3,204.5 63.2,202.3 63.2,200 63.2,197.9 62.6,197.9 62.3,197.7 61.9,197.7 
		61.7,197.7 61.4,197.5 61.2,197.5 61.2,197.3 61,197.3 61.2,201.4 61.6,205.4 62.1,209.1 62.6,212.1 62.8,212.3 	"/>
	<polyline fill="none" stroke="#266AE0" stroke-width="0.144" stroke-miterlimit="10" points="61,133.2 63.2,133.2 63.2,131.6 
		62.6,131.6 62.3,131.6 61.9,131.6 61.7,131.8 61.4,131.8 61.2,132 61,132.1 61,133.2 	"/>
	<polygon fill="none" stroke="#266AE0" stroke-width="0.144" stroke-miterlimit="10" points="73.1,216.8 69,216.8 69,217.1 
		69,217.3 73.1,217.3 73.1,217.1 	"/>
	<polygon fill="none" stroke="#266AE0" stroke-width="0.144" stroke-miterlimit="10" points="69,216.8 68.9,216.8 67.8,216.6 
		66.5,215.9 65.5,214.8 64.9,213.2 64.6,212.1 64,212.3 63.5,212.3 63.2,212.3 62.8,212.3 62.6,212.1 62.8,212.7 63.2,213.7 
		63.7,214.6 64.4,215.5 65.1,216.2 66.2,216.8 67.1,217.1 68.1,217.3 69,217.3 69,217.1 	"/>
	<polygon fill="none" stroke="#266AE0" stroke-width="0.144" stroke-miterlimit="10" points="61.2,80.8 61.4,80.7 61.7,80.7 
		61.9,80.7 62.3,80.5 62.6,80.5 63.2,80.5 63.2,78.3 63.2,76 63.3,73.9 63.5,71.8 63.9,69.8 64.2,67.8 64.6,66.1 64,66.1 63.5,66.1 
		63.2,66.1 62.8,66.1 62.6,66.2 62.1,69.3 61.6,72.8 61.2,76.7 61,81 61.2,81 	"/>
	<polygon fill="none" stroke="#266AE0" stroke-width="0.144" stroke-miterlimit="10" points="79,66.1 78.7,66.1 78.1,66.1 
		77.6,66.1 77.9,67.8 78.3,69.8 78.7,71.8 78.8,73.9 79,76 79,78.3 79.2,80.5 79.5,80.5 79.9,80.5 80.3,80.7 80.6,80.7 80.8,80.7 
		81,80.8 81.1,81 81,76.7 80.6,72.8 80.3,69.3 79.5,66.2 79.4,66.1 	"/>
	<polygon fill="none" stroke="#266AE0" stroke-width="0.144" stroke-miterlimit="10" points="80.8,80.7 80.6,80.7 80.3,80.7 
		79.9,80.5 79.5,80.5 79.2,80.5 79.2,119.7 79.5,119.7 79.9,119.7 80.3,119.7 80.6,119.9 80.8,119.9 81,120 81.1,120 81.1,81 
		81,80.8 	"/>
	<polygon fill="none" stroke="#266AE0" stroke-width="0.144" stroke-miterlimit="10" points="73.1,61.2 73.1,61.6 73.3,61.6 
		74.6,61.8 75.6,62.5 76.7,63.6 77.4,65.2 77.6,66.1 78.1,66.1 78.7,66.1 79,66.1 79.4,66.1 79.5,66.2 79.4,65.7 79,64.6 78.5,63.7 
		77.8,62.8 77.1,62.1 76,61.6 75.1,61.2 74,61.1 73.1,60.9 73.1,61.1 	"/>
	<polygon fill="none" stroke="#266AE0" stroke-width="0.144" stroke-miterlimit="10" points="80.8,119.9 80.6,119.9 80.3,119.7 
		79.9,119.7 79.5,119.7 79.2,119.7 79.2,121.5 79.5,123.2 80.3,125 81.1,126.6 82.2,128.2 83.5,129.5 84.9,130.5 86.3,131.6 
		86.5,131.3 86.7,131.1 86.9,130.9 87,130.7 87,130.5 87.2,130.4 87.4,130.4 86,129.5 84.7,128.6 83.6,127.3 82.8,126.1 82,124.7 
		81.5,123.2 81.1,121.8 81.1,120.2 81.1,120 81,120 	"/>
	<polygon fill="none" stroke="#266AE0" stroke-width="0.144" stroke-miterlimit="10" points="69,61.2 69,61.6 73.1,61.6 73.1,61.2 
		73.1,61.1 73.1,60.9 69,60.9 69,61.1 	"/>
	<polygon fill="none" stroke="#266AE0" stroke-width="0.144" stroke-miterlimit="10" points="82.8,126.1 83.6,127.3 84.7,128.6 
		86,129.5 87.4,130.4 89,130.9 90.8,131.4 92.4,131.4 90.8,131.3 89.2,130.9 87.7,130.4 86.3,129.7 85.1,128.6 83.8,127.5 
		82.9,126.3 82.2,124.8 81.5,123.2 82,124.7 	"/>
	<polygon fill="none" stroke="#266AE0" stroke-width="0.144" stroke-miterlimit="10" points="63.2,66.1 63.5,66.1 64,66.1 
		64.6,66.1 65.3,64.1 65.8,63.2 66.4,62.5 66.5,62.5 67.8,61.8 69,61.6 69,61.2 69,61.1 69,60.9 68.1,61.1 67.1,61.2 66,61.6 
		65.1,62.1 64.4,62.8 63.7,63.7 63.2,64.6 62.8,65.7 62.6,66.2 62.8,66.1 	"/>
	<polygon fill="none" stroke="#266AE0" stroke-width="0.144" stroke-miterlimit="10" points="61.4,131.8 61.7,131.8 61.9,131.6 
		62.3,131.6 62.6,131.6 63.2,131.6 63.2,80.5 62.6,80.5 62.3,80.5 61.9,80.7 61.7,80.7 61.4,80.7 61.2,80.8 61.2,81 61,81 61,132.1 
		61.2,132 	"/>
</g>
</svg>
