<?xml version="1.0" encoding="utf-8"?>
<!-- Generator: Adobe Illustrator 18.1.1, SVG Export Plug-In . SVG Version: 6.00 Build 0)  -->
<svg version="1.1" id="Layer_1" xmlns="http://www.w3.org/2000/svg" xmlns:xlink="http://www.w3.org/1999/xlink" x="0px" y="0px"
	 viewBox="0 0 415 266" enable-background="new 0 0 415 266" xml:space="preserve">
<path fill="none" stroke="#FFFFFF" stroke-width="0.576" stroke-linecap="round" stroke-linejoin="round" stroke-miterlimit="10" d="
	M37.9,171.7L37.9,171.7l-0.1,0.1 M59.9,169.5v0.1l-0.5,0.6l-0.2,0.2l-0.3,0.2 M41.2,172.3L41.2,172.3L41.2,172.3H41h-0.1
	 M58.8,170.7L58.8,170.7v-0.1h0.1 M53.8,173.5L53.8,173.5h0.1H54 M64.3,173L64.3,173l0.2-0.2l0.1-0.2l0.1-0.3V172 M48.9,174.3
	L48.9,174.3h-0.1l-0.1,0.1 M52.4,174.1L52.4,174.1 M56.5,177.4l-0.2,0.2 M56.5,177.4l-0.3,0.2l-0.2,0.3 M56.7,176.6l-0.3,0.2
	l-0.2,0.2l-0.2,0.3l-0.1,0.2v0.1 M55.9,176.3l-0.1,0.3v0.4v0.1 M56.7,178.8L56.7,178.8L56.7,178.8h-0.2h-0.1 M60.1,169.1L60.1,169.1
	l0.1,0.1h0.1l0.2,0.1 M64.5,185.8L64.5,185.8L64.5,185.8h-0.2h-0.1 M64.7,172L64.7,172 M67.1,188.6v-0.1H67h-0.1h-0.1 M66.8,190.8
	L66.8,190.8l0.1-0.1v-0.1v-0.2l-0.1-0.1v-0.2 M60.6,147.1l0.1,0.1v0.2l0.1,0.1l0.1,0.1 M64,145.5L64,145.5 M66,191.3L66,191.3
	l0.1-0.2V191v-0.1l-0.1-0.2v-0.1 M64.3,143.4L64.3,143.4 M35,174.3l-0.1-0.1 M64,191l-0.2-0.1 M60.6,146.5L60.6,146.5l0.1,0.2
	l0.1,0.1 M59.7,146.3L59.7,146.3v-0.2V146 M64.3,143.4v-0.2v-0.3v-0.3l-0.1-0.3l-0.1-0.3l-0.2-0.3l-0.2-0.2l-0.2-0.3l-0.2-0.2
	l-0.3-0.1l-0.2-0.1h-0.2h-0.2l-0.1,0.1 M59.5,146.4L59.5,146.4l0.1-0.2l0.1-0.2 M48.1,149.1V149h0.2h0.2h0.3l0.2,0.1l0.2,0.2
	l0.2,0.2l0.2,0.2l0.2,0.3l0.2,0.3l0.1,0.3l0.1,0.3v0.3 M50.2,151.2v0.3l-0.1,0.2l-0.1,0.1l-0.2,0.2 M226.5,79.3L226.5,79.3l0.2-0.1
	l0.1-0.2l0.1-0.3v-0.3 M225.7,79.1v0.3l-0.1,0.3l-0.1,0.2l-0.2,0.1 M226.2,53.2l0.2-0.1l0.1-0.1l0.1-0.2v-0.1l0.1-0.1 M226.4,51.8
	l0.1-0.1h0.2v-0.1l0.1-0.1 M239.2,42.7L239.2,42.7l0.1-0.1l0.1-0.2l0.1-0.2v-0.3 M239.5,41.9v-0.3l-0.1-0.3l-0.1-0.3l-0.1-0.3
	l-0.2-0.2l-0.2-0.3l-0.3-0.2l-0.2-0.2l-0.2-0.1h-0.2h-0.3l-0.1,0.1 M229.8,47.9l-0.1,0.2l-0.1,0.1h-0.1 M223.3,47.9L223.3,47.9
	l0.3-0.1l0.2,0.1h0.2l0.3,0.2l0.2,0.2l0.2,0.2l0.2,0.3l0.2,0.3l0.1,0.3l0.1,0.3V50v0.2v0.3 M225.1,50.5l0.1-0.3V50l-0.1-0.3v-0.3
	l-0.2-0.3l-0.1-0.2l-0.2-0.3l-0.2-0.2l-0.2-0.2l-0.2-0.1l-0.3-0.1h-0.2h-0.1 M225.3,79.8L225.3,79.8l0.2-0.2v-0.2v-0.3 M225.4,79.3
	L225.4,79.3L225.4,79.3 M224.7,52.8L224.7,52.8 M225,50.7L225,50.7v-0.1 M225,80.2L225,80.2l0.2-0.2l0.1-0.2l0.1-0.2v-0.3 M65,171.9
	v0.3l-0.1,0.2l-0.1,0.2l-0.2,0.2 M225,50.7v-0.3v-0.2v-0.3l-0.1-0.3l-0.1-0.3l-0.2-0.3l-0.2-0.3l-0.2-0.2l-0.2-0.2l-0.3-0.2h-0.2
	l-0.2-0.1l-0.2,0.1H223 M62.6,140.7L62.6,140.7l0.3-0.1h0.2l0.2,0.1l0.3,0.2l0.2,0.1l0.2,0.3l0.2,0.2l0.2,0.3l0.1,0.3l0.1,0.3
	l0.1,0.3l-0.1,0.3v0.2 M64.4,143.2l0.1-0.2v-0.3v-0.2l-0.1-0.3l-0.1-0.3l-0.2-0.3l-0.2-0.2l-0.2-0.2l-0.2-0.2l-0.2-0.1l-0.2-0.1
	h-0.2h-0.2 M64.6,172.6L64.6,172.6l0.2-0.2v-0.3l0.1-0.2 M227.1,69l3.5,0.9 M236.7,67.9h-0.1h-0.1l-0.1,0.1 M227,65.5l9.4,2.5
	 M230.9,69.2l-3.8-1 M230.6,70.1v0.3v0.3V71l0.1,0.3v0.1 M234.3,75.2v-0.1 M230.6,70.1l0.3,0.2l0.2,0.2l0.2,0.2l0.1,0.2 M230.6,69.9
	l0.3,0.1l0.2,0.1l0.2,0.1l0.1,0.1l0.1,0.2v0.1 M231.4,70.8L231.4,70.8h0.1v-0.1h0.1l0.1-0.1h0.1 M234.7,75.4l-0.2-0.2l-0.2-0.2
	 M230.7,71.4L230.7,71.4h0.1h0.1 M239.7,69.7L239.7,69.7l-0.1-0.1l-0.1,0.1h-0.1 M249.8,78.8L249.8,78.8l-0.1-0.1l-0.1,0.1
	 M227.2,73.5l3.7-2.1 M252.5,81.6l-0.1-0.1h-0.1h-0.1h-0.1 M227.7,74.8l-0.5-0.3 M252.1,83.8h0.1v-0.1v-0.1v-0.2v-0.1l-0.1-0.2
	 M233.4,75.3L233.4,75.3 M225.3,80L225.3,80l0.2-0.1l0.1-0.2l0.1-0.3v-0.3 M251.3,84.3L251.3,84.3l0.1-0.2V84v-0.1v-0.2l-0.1-0.1
	 M227.7,74.8l-0.2,0.1h-0.2h-0.1 M249.1,83.9h0.2 M234.2,75.1l0.1,0.1 M229.8,71.9l-2.7-1.5 M227.2,75.2v0.4l-0.2,0.3l-0.2,0.2
	 M226.7,52.6l-0.1,0.1v0.1l-0.1,0.2l-0.1,0.1l-0.2,0.1 M226.8,51.5l-0.1,0.1v0.1h-0.2l-0.1,0.1 M237.5,39.8l0.1-0.1h0.3h0.2l0.2,0.1
	l0.2,0.2l0.3,0.2l0.2,0.3l0.2,0.2l0.1,0.3l0.1,0.3l0.1,0.3v0.3 M239.5,41.9v0.3l-0.1,0.2l-0.1,0.2l-0.1,0.1 M229.5,48.2h0.1l0.1-0.1
	l0.1-0.2 M225.3,50.5v-0.3V50v-0.3l-0.1-0.3l-0.1-0.3l-0.2-0.3l-0.2-0.3l-0.2-0.2l-0.2-0.2l-0.3-0.2h-0.2l-0.2-0.1l-0.2,0.1h-0.1
	 M223.4,48h0.1h0.2l0.3,0.1l0.2,0.1l0.2,0.2l0.2,0.2l0.2,0.3l0.1,0.2l0.2,0.3v0.3l0.1,0.3v0.2l-0.1,0.3 M225.5,79.1v0.3v0.2
	l-0.2,0.2 M318.7,26.7h0.1h0.1l0.2,0.1l0.1,0.1l0.1,0.2l0.1,0.1l0.1,0.2v0.1l-0.1,0.1 M267.5,53.4h0.1h0.1l0.1,0.1l0.2,0.1l0.1,0.2
	l0.1,0.1l0.1,0.2v0.1l-0.1,0.1 M264,54h0.1l0.1,0.2v0.1l0.1,0.2l-0.1,0.2v0.2l-0.1,0.1l-0.2,0.1l-0.1-0.1 M36,172.4L36,172.4
	 M37.8,171.8h-0.3h-0.4l-0.4,0.2l-0.4,0.2l-0.3,0.1v0.1 M36,172.4l-0.8,0.4 M35.2,172.8l-0.2,0.1l-0.2,0.1v0.1h0.1l0.3,0.2
	 M35.2,172.8L35.2,172.8 M35,174.3l-0.1-0.1l-0.1-0.2v-0.1v-0.2l0.1-0.1v-0.1l0.2-0.1l0.1-0.1 M59.6,171.1l0.2-0.1l0.1-0.2l0.2-0.2
	l0.2-0.3l0.1-0.2v-0.3l0.1-0.3v-0.2 M61.4,172.1l0.3-0.2l0.4-0.2l0.6-0.5l0.4-0.4l0.2-0.2v-0.1l0.1-0.1 M60.2,171.5l0.2-0.2l0.2-0.1
	l0.2-0.2l0.2-0.3l0.1-0.2l0.1-0.3l0.1-0.2l0.1-0.2 M61.7,172.7v-0.1v-0.1l-0.1-0.1v-0.1l-0.1-0.1v-0.1h-0.1 M56.7,175.5L56.7,175.5
	v-0.1v-0.1l-0.1-0.1v-0.1h-0.1V175l-0.1-0.1 M52.5,174.1l-0.5,0.2l-0.5,0.1H51l-0.5,0.1H50h-0.5l-0.4-0.1h-0.4 M48.7,174.4l-7.8-2.1
	 M40.9,172.3l-0.4-0.1l-0.5-0.1l-0.4-0.1h-0.5l-0.5-0.1l-0.4-0.1h-0.4 M37.8,171.8l-2.6,1.5 M35.2,173.3l0.3,0.1l0.3,0.1l0.3,0.2
	l0.4,0.1l0.4,0.1l0.4,0.2l0.4,0.1 M37.7,174.2l10.2,2.6 M37.4,174.9L37.4,174.9v-0.2l0.1-0.1v-0.1v-0.1l0.1-0.1l0.1-0.1 M56.7,176.6
	v0.2v0.1v0.1v0.1v0.1h-0.1v0.1l-0.1,0.1 M56.7,175.5l-0.3,0.3l-0.3,0.3l-0.2,0.2 M55.9,176.3L55.9,176.3L55.9,176.3v-0.2h-0.1V176
	h-0.1l-0.1-0.1h-0.1 M55.8,177.1L55.8,177.1 M59.6,171.1l-0.3-0.1l-0.2-0.2l-0.2-0.2 M58.9,170.6l-4.9,2.9 M54,173.5l-0.4,0.2
	l-0.5,0.2l-0.6,0.2 M47.9,176.8l4.6-2.7 M55.5,175.9L55.5,175.9l0.2-0.4l0.3-0.3l0.4-0.3 M56.4,174.9l5-2.8 M61.4,172.1l-0.5-0.2
	l-0.4-0.2l-0.3-0.2 M60.2,171.5l-0.6-0.4 M47.9,176.8l0.5,0.1l0.6,0.2l0.5,0.3l0.5,0.4l0.9,0.7 M47.6,177.5v-0.1v-0.1v-0.1v-0.1
	l0.1-0.1v-0.1h0.1l0.1-0.1 M60.5,169.3l0.4,0.2l0.5,0.3 M60.9,153.5l-0.4,15.8 M61.4,169.8l-0.5-16.3 M61.4,169.8l0.4,0.3l0.4,0.3
	l0.5,0.1h0.5l0.2-0.1 M60.9,153.5V152v-1.4v-1.5v-1.5 M60.9,147.6l0.3,0.1l0.2,0.1h0.2h0.3h0.3l0.2-0.1l0.2-0.1l0.2-0.1 M60.9,147.6
	v-0.4l-0.1-0.4 M66,190.6l0.8-0.5 M66.8,190.1l0.2-0.2l0.1-0.3v-0.1v-0.2L67,189l-0.2-0.5 M50.4,179.2l-0.9-0.8l-0.4-0.3l-0.5-0.3
	l-0.5-0.1l-0.5-0.2 M47.6,177.5l-10.2-2.6 M50.4,179.2v-0.1l0.1-0.1v-0.1l0.1-0.1l0.1-0.1l0.1-0.1l0.1-0.1 M60.5,188.2l-10.1-9
	 M64.2,190l0.2,0.2l0.5,0.2l0.4,0.2l0.4,0.1l0.2-0.1H66 M63.8,190.9l-0.1-0.1l0.1-0.1v-0.1v-0.1l0.1-0.1l0.1-0.2l0.1-0.1l0.1-0.1
	 M60.5,188.2L60.5,188.2l0.1-0.1V188l0.1-0.1l0.1-0.1l0.1-0.1l0.1-0.1 M37.4,174.9l-0.4-0.1h-0.4l-0.4-0.1l-0.3-0.1l-0.4-0.1
	l-0.3-0.1l-0.2-0.1 M34.9,174.2L34.9,174.2 M64,191L64,191 M63.8,190.9l-0.5-0.3l-0.4-0.3l-0.5-0.4l-0.5-0.4l-0.5-0.4l-0.4-0.4
	l-0.5-0.5 M37.4,174.9l23.1,13.3 M50.9,178.5l4.6-2.6 M50.9,178.5l10.1,9.1 M61,187.6l0.5,0.4l0.4,0.4l0.5,0.4l0.5,0.3l0.4,0.3
	l0.4,0.3l0.5,0.3 M64.2,190l2.6-1.5 M66.8,188.5l-0.3-0.3l-0.3-0.4l-0.4-0.4l-0.3-0.4l-0.4-0.4l-0.5-0.4l-0.4-0.4 M64.2,185.8
	l-7.8-7 M56.4,178.8l-0.3-0.3l-0.3-0.4l-0.2-0.4l-0.2-0.3V177l-0.1-0.4l0.1-0.4l0.1-0.3 M64,145.5v-0.3V145v-0.3v-0.3l0.1-0.2v-0.3
	l0.1-0.2l0.1-0.3 M59.7,146L59.7,146h0.2H60l0.6-0.3l0.5-0.1l0.4-0.1l0.3,0.1l0.3,0.1l0.3,0.3l0.2,0.3 M60.8,146.8l-0.1-0.3
	l-0.2-0.2l-0.3-0.1v-0.1 M60.8,146.8l0.2,0.1h0.2h0.3l0.2-0.1l0.3-0.1l0.2-0.1l0.2-0.1l0.2-0.2 M62.8,147.5l0.6,22.9 M63.4,170.4
	L63.4,170.4v0.1l-0.1,0.2l-0.1,0.2l-0.3,0.5l-0.2,0.3l-0.3,0.4l-0.3,0.3l-0.4,0.3 M61.7,172.7l-5,2.8 M56.7,175.5v1.1 M56.7,176.6
	l8-4.6 M64.7,172L64,145.5 M64,145.5l-1.4,0.8 M62.6,146.3l0.2,0.6v0.6 M59.7,146l4.6-2.6 M48.6,151.2V151l-0.1-0.1l-0.1-0.2
	l-0.1-0.1l-0.2-0.1H48h-0.1l-0.1,0.1v0.1v0.2l0.1,0.2l0.1,0.2l0.1,0.1l0.2,0.1h0.1l0.1-0.1l0.1-0.1V151.2 M233,42.1L233,42.1h0.1
	 M235,45.2L235,45.2L235,45.2 M232.4,42.5L232.4,42.5 M234.3,45.6l-0.1,0.1 M233.3,42L233.3,42L233.3,42L233.3,42 M235.1,45h0.1v0.1
	 M233.4,42.1L233.4,42.1 M233.4,42.1l-0.8,0.5 M235.1,44.9L235.1,44.9V45 M235.1,45l-0.8,0.4 M233.6,42L233.6,42l0.1,0.1v0.1
	 M233.7,42.2L233.7,42.2h0.1 M233.7,42.2l-0.8,0.4 M235.2,44.6v0.1h0.1v0.1h-0.1 M235.2,44.5L235.2,44.5L235.2,44.5 M235.2,44.6
	l-0.8,0.5 M233.9,42.2L233.9,42.2h0.1v0.1 M234,42.3L234,42.3h0.1v0.1h0.1 M234,42.3l-0.8,0.5 M235.2,44.3L235.2,44.3h0.1v0.1v0.1
	 M235.2,44.1L235.2,44.1v0.1v0.1 M235.2,44.3l-0.8,0.4 M234.2,42.4L234.2,42.4h0.1v0.1v0.1 M234.3,42.6L234.3,42.6l0.1,0.1h0.1
	 M234.3,42.6l-0.8,0.4 M235.1,43.9h0.1V44v0.1 M235.1,43.7L235.1,43.7L235.1,43.7v0.2 M235.1,43.9l-0.8,0.4 M234.6,42.9L234.6,42.9
	h0.1V43v0.1 M234.9,43.3L234.9,43.3L234.9,43.3l0.1,0.1v0.1 M234.5,42.7L234.5,42.7h0.1v0.1v0.1 M234.6,42.9l-0.8,0.5 M235,43.5
	L235,43.5h0.1v0.1v0.1 M235,43.5l-0.8,0.4 M234.9,43.3l-0.8,0.4 M234.7,43.1h0.1h0.1v0.1v0.1 M233.2,42.8L233.2,42.8h0.1v0.1h0.1
	 M233.1,42.7v-0.1l0.1,0.1v0.1 M232.9,42.6L232.9,42.6h0.1v0.1h0.1 M232.7,42.6L232.7,42.6l0.1-0.1h0.1v0.1 M232.6,42.6L232.6,42.6
	h0.1 M232.5,42.6l-0.1-0.1L232.5,42.6v-0.2V42.6l0.1-0.1v0.1 M232.3,42.6L232.3,42.6h0.2 M232.2,42.7v-0.1v-0.1h0.1v0.1 M232.1,42.7
	L232.1,42.7h0.1 M232,42.9L232,42.9v-0.2h0.1 M232,42.9L232,42.9 M231.8,43L231.8,43l0.1-0.1 M233.7,45.8L233.7,45.8l-0.1,0.1
	 M233.8,45.8L233.8,45.8h-0.1 M234,45.8L234,45.8L234,45.8l-0.1,0.1h-0.1v-0.1 M234.1,45.7L234.1,45.7l-0.1,0.1 M234.2,45.7
	L234.2,45.7L234.2,45.7l-0.1,0.1v-0.1 M234.3,45.6h-0.1v0.1 M234.3,45.4l0.1,0.1v0.1h-0.1 M234.4,45.3L234.4,45.3L234.4,45.3
	L234.4,45.3 M234.4,45.1L234.4,45.1l0.1,0.1v0.1h-0.1 M234.4,44.9V45v0.1 M234.4,44.7L234.4,44.7l0.1,0.1v0.1l-0.1,0.1v-0.1
	 M234.4,44.6L234.4,44.6v0.1 M234.3,44.3L234.3,44.3L234.3,44.3l0.1,0.2v0.1 M234.3,44.1v0.1v0.1 M234.2,43.9L234.2,43.9l0.1,0.1
	v0.1 M234.1,43.7L234.1,43.7v0.2h0.1 M233.9,43.5h0.1v0.1h0.1v0.1 M233.8,43.4L233.8,43.4L233.8,43.4l0.1,0.1 M233.7,43.2
	L233.7,43.2h0.1v0.1v0.1 M233.5,43l0.1,0.1l0.1,0.1 M233.4,42.9L233.4,42.9L233.4,42.9L233.4,42.9h0.1V43 M225.3,80L225.3,80
	 M225.7,79.1l1.2-0.7 M226.9,78.4l-0.7-25.2 M226.2,53.2l0.1-0.7l0.1-0.7 M225.5,79.1h0.1h0.1 M225,52.6l0.7,26.5 M224.8,52.6
	L224.8,52.6h0.2 M225.3,50.5l-0.1,0.2l-0.1,0.3v0.2v0.3l-0.1,0.2V52v0.3v0.3 M226.4,51.8l-1.4,0.8 M226.4,51.8l0.2-0.6l0.3-0.6
	l0.4-0.5l0.5-0.5l0.5-0.6l0.5-0.4l0.8-0.6h0.1l0.1-0.1 M225.3,50.5l4.5-2.6 M225.3,50.5L225.3,50.5h-0.1h-0.1 M223.3,47.9
	L223.3,47.9 M225.5,79.1l-0.7-26.5 M224.8,52.6v-0.3V52l0.1-0.3v-0.3v-0.2l0.1-0.3l0.1-0.2v-0.2 M64.6,172.8L64.6,172.8 M65,171.9
	l160.4-92.6 M225.4,79.3l-0.7-26.5 M64.9,171.9L64.9,171.9L64.9,171.9 M64.3,145.3l0.7,26.6 M224.7,52.8L64.3,145.3 M224.7,52.8
	v-0.3v-0.3v-0.3v-0.3l0.1-0.2v-0.3l0.1-0.2l0.1-0.2 M64.1,145.3L64.1,145.3L64.1,145.3l0.2,0.1v-0.1 M64.6,143.2l-0.1,0.3v0.2
	l-0.1,0.3v0.2l-0.1,0.3v0.3v0.2v0.3 M64.6,143.2L225,50.7 M64.4,143.2L64.4,143.2l0.1,0.1h0.1v-0.1 M62.6,140.7L62.6,140.7
	 M64.9,171.9l-0.8-26.6 M64.1,145.3V145l0.1-0.2v-0.3v-0.3V144l0.1-0.3l0.1-0.2v-0.3 M230.6,69.9L230.6,69.9v-0.2v-0.1v-0.1l0.1-0.1
	v-0.1l0.1-0.1h0.1 M231.8,70.6l0.1-0.2l0.1-0.2l-0.1-0.2v-0.2l-0.2-0.2l-0.2-0.2l-0.3-0.1l-0.3-0.1 M230.6,69.9v0.2 M233.4,75.3
	l0.4-0.2l0.4-0.1h0.3h0.5h0.4l0.4,0.1l0.4,0.2l0.4,0.2l0.3,0.3l0.4,0.3l0.3,0.3 M234.9,73.1L234.9,73.1v-0.2v-0.1v-0.1v-0.1
	l-0.1-0.1v-0.1 M233.6,73.4l0.4-0.2l0.5-0.1h0.4 M233.7,74.5l0.3-0.2l0.4-0.1l0.4-0.1l0.4-0.1h0.5l0.4-0.1l0.5,0.1h0.4l0.4,0.1
	l0.4,0.2l0.3,0.1 M234.9,73.1h0.4h0.4l0.5,0.1l0.4,0.1l0.4,0.2l0.4,0.2l0.4,0.3l0.3,0.3 M233.6,73.4L233.6,73.4v-0.2l-0.1-0.1V73
	l-0.1-0.1l-0.1-0.1 M233.3,72.8l-4.9,2.9 M234.8,72.4L234.8,72.4h-0.5l-0.5,0.2l-0.5,0.2 M236.4,68l0.5,0.1l0.6,0.2l0.5,0.3l0.5,0.3
	l0.9,0.8 M236.4,68l-4.6,2.6 M230.9,71.4l0.3-0.2l0.3-0.3l0.3-0.3 M238.1,74.4L238.1,74.4 M237.6,76.4l0.1-0.2l0.1-0.2l0.1-0.2
	l0.1-0.2v-0.3l0.1-0.3v-0.3v-0.3 M233.7,74.5L233.7,74.5l-0.1,0.2v0.1v0.1V75l-0.1,0.1v0.1l-0.1,0.1 M225.3,80L225.3,80 M238.1,74.3
	L238.1,74.3l0.1-0.2V74l0.1-0.1h0.1v-0.1l0.1-0.1h0.1 M238.1,74.3l7.8,6.9 M252.1,83.1l-0.8,0.5 M252.1,81.5l0.2,0.2l0.1,0.5
	l0.1,0.4l-0.2,0.3l-0.1,0.2h-0.1 M228.6,76.3L228.6,76.3v-0.2V76l-0.1-0.1v-0.1l-0.1-0.1 M251.3,83.6l-0.3,0.1l-0.3-0.1h-0.1
	l-0.3-0.1l-0.2-0.2l-0.6-0.3 M245.9,81.2L245.9,81.2v-0.1L246,81l0.1-0.1v-0.1l0.1-0.1h0.1l0.1-0.1 M249.1,83.9L249.1,83.9v-0.2
	v-0.1l0.1-0.1l0.1-0.1v-0.2l0.1-0.1l0.1-0.1 M228.4,75.7l-0.2-0.4L228,75l-0.3-0.2 M228.4,75.7l-0.3,0.2l-0.2,0.1l-0.5,0.1h-0.2H227
	h-0.1h-0.1 M249.3,83.9V84 M245.9,81.2l0.4,0.5l0.5,0.4l0.5,0.4l0.4,0.4l0.5,0.3l0.5,0.4l0.4,0.3 M245.9,81.2l-8.3-4.8 M234.7,75.4
	l0.6,0.3l0.5,0.3l0.5,0.2l0.4,0.2h0.4h0.5 M234.3,75.2l0.4,0.2 M239.4,69.7l-4.6,2.7 M238.6,73.7l-0.4-0.3l-0.4-0.3l-0.5-0.3
	l-0.5-0.2l-0.5-0.1l-0.5-0.1h-0.5h-0.5 M246.4,80.6l-7.8-6.9 M249.5,83l-0.4-0.3l-0.4-0.3l-0.5-0.3l-0.5-0.3l-0.4-0.4l-0.5-0.4
	l-0.4-0.4 M252.1,81.5l-2.6,1.5 M249.6,78.8l0.4,0.4l0.4,0.4l0.4,0.4l0.4,0.4l0.3,0.4l0.3,0.4l0.3,0.3 M239.4,69.7l10.2,9.1
	 M225.7,79.1L225.7,79.1h-0.1h-0.1 M226.2,53.2l0.6,22.9 M226.4,51.8l-0.1,0.7l-0.1,0.7 M225.7,79.1L225,52.6 M233.7,74.5l-8,4.6
	 M233.6,73.4l0.1,1.1 M228.6,76.3l5-2.9 M226.8,76.1L226.8,76.1L226.8,76.1l0.2,0.1l0.1,0.1l0.3,0.2h0.2h0.3l0.4-0.1l0.3-0.1
	 M225,52.6L225,52.6h-0.1h-0.1 M225,52.6l1.4-0.8 M229.8,47.9L229.8,47.9l-0.1,0.1h-0.1l-0.8,0.6l-0.5,0.4l-0.5,0.6l-0.5,0.5
	l-0.4,0.5l-0.3,0.6l-0.2,0.6 M225,52.6v-0.3V52v-0.3l0.1-0.2v-0.3V51l0.1-0.3l0.1-0.2 M229.8,47.9l-4.5,2.6 M225.1,50.5L225.1,50.5
	h0.1h0.1 M224.8,52.6l0.7,26.5 M225.1,50.5v0.2l-0.1,0.2l-0.1,0.3v0.2v0.3l-0.1,0.3v0.3v0.3 M318.7,26.7l-51.2,26.7 M268.2,54.3
	l51.2-26.7 M267.5,53.4l-0.7,0.3l-0.6,0.2l-0.4,0.1l-0.4,0.1h-0.2H265h-0.3l-0.4-0.1H264 M263.8,55l0.5,0.1l0.5,0.1h0.3h0.3l0.3-0.1
	h0.1h0.2l0.3-0.1l0.4-0.1l0.4-0.1l0.5-0.2l0.6-0.3 M264,54L264,54v-0.1v-0.2v-0.2v-0.4v-0.5V52v-0.6v-0.5l-0.1-0.5v-0.5l-0.1-0.8
	l-0.1-0.6l-0.1-0.7l-0.3-1l-0.2-0.9l-0.3-0.9l-0.4-0.7l-0.4-0.9l-0.7-1l-0.7-1.1l-0.9-0.9l-0.9-0.9l-0.9-0.8l-1-0.7l-0.5-0.4
	l-0.6-0.4l-0.5-0.3l-0.5-0.3l-0.4-0.2l-0.5-0.3l-0.6-0.3l-0.5-0.3l-0.4-0.2l-0.4-0.1l-0.4-0.1l-0.5-0.2l-0.6-0.1h-0.6H249l-0.8,0.2
	l-0.7,0.3l-0.5,0.2l-0.6,0.3l-0.6,0.3l-0.7,0.5l-0.6,0.4l-0.7,0.4l-0.6,0.5l-0.6,0.4l-0.7,0.5l-0.9,0.5l-0.7,0.4l-0.7,0.3l-0.3,0.1
	 M239.8,41.1l0.4-0.1l0.8-0.4l0.8-0.5l0.8-0.5l0.8-0.5l0.7-0.5l1.1-0.8l0.9-0.6l0.9-0.5l0.6-0.3l0.5-0.2l0.4-0.1l0.3-0.1l0.4-0.1
	h0.5h0.5l0.6,0.1l0.6,0.1l0.7,0.3l0.7,0.3l0.7,0.4l0.6,0.3l0.5,0.3l0.5,0.4l0.6,0.3l0.6,0.5l0.6,0.4l0.5,0.4l0.5,0.4l0.5,0.5
	l0.4,0.3l0.2,0.3l0.2,0.3l0.3,0.3l0.3,0.4l0.5,0.5l0.3,0.6l0.3,0.4l0.3,0.5l0.2,0.5l0.2,0.5l0.3,0.6l0.2,0.7l0.2,0.7l0.2,0.7
	l0.1,0.5l0.1,0.5v0.3l0.1,0.5v0.6l0.1,0.8V52v0.7v0.7v0.5l0.1,0.3l0.1,0.3l0.1,0.2l0.1,0.1l0.3,0.2h0.2 M36,172.4l-0.8,0.4
	 M37.9,171.7L37.9,171.7h-0.4l-0.3,0.1l-0.3,0.1l-0.3,0.1l-0.2,0.1l-0.2,0.1l-0.2,0.2h-0.1 M35.2,172.8l-0.2,0.1l-0.1,0.1l-0.2,0.1
	l-0.1,0.1v0.1l-0.1,0.2v0.2v0.1l0.1,0.2l0.1,0.1h0.1l0.1,0.1 M41.2,172.3l-0.9-0.2l-0.8-0.2l-0.8-0.1l-0.8-0.1 M64.3,173L64.3,173
	l0.1-0.2l0.2-0.1l0.1-0.2v-0.3V172 M59.9,169.5v0.1l-0.3,0.3l-0.2,0.3l-0.2,0.2l-0.3,0.2l-0.1,0.1 M60,169.1L60,169.1v0.2v0.1
	l-0.1,0.1 M48.9,174.3l-7.7-2 M58.8,170.7l-5,2.8 M53.8,173.5l-0.3,0.2l-0.3,0.1l-0.4,0.2l-0.3,0.1h-0.1 M56.3,177.6l8-4.6
	 M52.4,174.1l-0.2,0.1l-0.4,0.1h-0.4l-0.4,0.1h-0.4h-0.5h-0.3h-0.4l-0.3-0.1h-0.2 M56,177.9l0.1-0.1l0.1-0.1l0.1-0.1 M56.7,178.8
	L56.7,178.8l-0.4-0.4l-0.2-0.3l-0.1-0.3l-0.1-0.3l-0.1-0.3v-0.1 M64.5,185.8l-7.8-7 M60.6,147.1l-0.6,22 M67.1,188.6l-0.5-0.7
	l-0.6-0.6l-0.7-0.8l-0.8-0.7 M64.7,172L64,145.5 M66.8,190.8l0.1-0.1l0.2-0.2l0.2-0.2l0.1-0.3v-0.2l0.1-0.3l-0.1-0.3l-0.1-0.3
	l-0.1-0.2l-0.1-0.1 M66,191.3l0.8-0.5 M60.6,146.5L60.6,146.5v0.2v0.2v0.2 M64,145.5v-0.3v-0.5l0.1-0.5l0.1-0.5l0.1-0.3 M64,191
	l0.2,0.1l0.3,0.2l0.3,0.1h0.3h0.3h0.2l0.3-0.1l0.1-0.1 M64.3,143.4L64.3,143.4l0.1-0.4v-0.2l-0.1-0.3l-0.1-0.3l-0.1-0.3l-0.2-0.2
	l-0.1-0.3l-0.2-0.2l-0.3-0.2l-0.2-0.1l-0.2-0.1h-0.2h-0.2l-0.2,0.1 M34.9,174.2L64,191 M60.4,146.3L60.4,146.3L60.4,146.3l0.2,0.2
	 M59.5,146.4l0.1-0.1h0.1 M59.7,146.3h0.1l0.2-0.1h0.1l0.1-0.1h0.1 M49.8,152l9.7-5.6 M62.3,140.9L48.1,149 M48.1,149.1H48l-0.2,0.2
	l-0.1,0.2l-0.1,0.3l-0.1,0.2v0.2v0.3v0.3l0.1,0.3l0.2,0.2l0.2,0.3l0.2,0.2l0.3,0.2l0.2,0.1H49h0.2h0.3l0.2-0.1h0.1 M232,42.9h-0.1
	 M233.7,45.9h0.1 M232.2,42.6l-0.2,0.1 M234,45.9l0.1-0.1 M234,45.8l0.1-0.1 M233,42.1l-0.8,0.4 M234.2,45.8l0.8-0.5 M233.3,42
	l-0.8,0.5 M234.4,45.6l0.8-0.5 M233.6,42l-0.8,0.5 M234.5,45.3l0.7-0.5 M233.9,42.2l-0.8,0.4 M234.5,44.9l0.8-0.4 M234.2,42.4
	l-0.8,0.5 M234.4,44.6l0.8-0.5 M234.5,42.7l-0.8,0.5 M234.3,44.1l0.8-0.4 M234.7,43.1l-0.7,0.4 M225.3,80l1.2-0.7 M225.1,80.1
	l0.2-0.1 M239.8,41.4v-0.2v-0.3l-0.1-0.2l-0.2-0.3l-0.2-0.3l-0.2-0.2l-0.3-0.1l-0.2-0.2h-0.3h-0.2h-0.3l-0.2,0.1l-0.1,0.1
	 M239.2,42.7l0.1-0.1l0.2-0.2l0.1-0.2l0.1-0.2l0.1-0.3v-0.3 M227.3,75.2l-0.6-22.6 M229.4,48.3h0.1v-0.1 M226.7,52.6v-0.2V52v-0.3
	l0.1-0.2 M226.8,51.5v-0.1l0.1-0.3l0.2-0.3l0.2-0.4l0.2-0.3l0.3-0.4l0.3-0.3l0.3-0.3l0.4-0.3l0.4-0.3l0.2-0.2 M235.1,45l4.1-2.3
	 M229.5,48.2l4.5-2.5 M232.3,42.7l-9,5.2 M237.5,39.8l-4.1,2.3 M223.3,47.9L223.3,47.9l-0.1,0.1 M225,80.2L225,80.2l0.1-0.1l0.2-0.2
	l0.1-0.2v-0.2v-0.3 M225.4,79.2l-0.7-26.5 M224.7,52.7v-0.3v-0.5l0.1-0.5l0.1-0.5l0.1-0.3 M225,50.6L225,50.6l0.1-0.3L225,50v-0.3
	l-0.1-0.2l-0.1-0.3l-0.2-0.3l-0.2-0.2l-0.2-0.2l-0.2-0.2l-0.2-0.2h-0.2l-0.2-0.1h-0.2l-0.2,0.1 M64.6,172.8L225,80.2 M64.4,172.8
	h0.2 M223,48.1L62.6,140.7 M62.6,140.7L62.6,140.7l-0.1,0.1 M236.7,67.9l-9.7-2.5 M239.7,69.7l-0.1-0.1l-0.7-0.6l-0.3-0.3l-0.4-0.2
	l-0.3-0.2l-0.3-0.1l-0.3-0.1l-0.4-0.1l-0.2-0.1 M231.5,70.6v0.1l-0.1,0.1 M231.4,70.8L231.4,70.8l-0.2,0.3l-0.2,0.1l-0.2,0.2h-0.1
	 M233.3,75.4L233.3,75.4l0.4-0.2h0.3l0.3-0.1h0.1h0.2v0.1h0.1 M230.7,71.4l-3.5,2 M249.8,78.8l-10.1-9.1 M252.5,81.6l-0.5-0.7
	l-0.6-0.6l-0.8-0.8l-0.8-0.7 M252.1,83.8l0.1-0.1l0.2-0.1l0.2-0.2l0.1-0.3l0.1-0.3v-0.2v-0.3l-0.1-0.3l-0.1-0.3l-0.1-0.1
	 M251.3,84.3l0.8-0.5 M225.3,80l8-4.6 M225.1,80.1l0.2-0.1 M249.3,83.9V84l0.3,0.2l0.3,0.1l0.3,0.1h0.3h0.3h0.2l0.3-0.1 M234,75.1
	l15.3,8.9 M227.1,71.2l2,1.1 M239.8,41.4v-0.2v-0.3l-0.1-0.2l-0.2-0.3l-0.2-0.3l-0.2-0.2l-0.3-0.1l-0.2-0.2h-0.3h-0.2h-0.3l-0.2,0.1
	l-0.1,0.1 M239.2,42.7l0.1-0.1l0.2-0.2l0.1-0.2l0.1-0.2l0.1-0.3v-0.3 M227.3,75.2l-0.6-22.6 M229.4,48.3h0.1v-0.1 M226.7,52.6
	l-0.1-0.1l0.1-0.3v-0.4l0.1-0.2 M226.8,51.5v-0.1l0.1-0.3l0.2-0.3l0.2-0.4l0.2-0.3l0.3-0.4l0.3-0.3l0.3-0.3l0.4-0.3l0.4-0.3l0.2-0.2
	 M232.3,42.7l-9,5.2 M237.5,39.8l-4.1,2.3 M235.1,45l4.1-2.3 M229.5,48.2l4.5-2.5 M223.3,47.9L223.3,47.9l-0.1,0.1"/>
</svg>
