<?xml version="1.0" encoding="utf-8"?>
<!-- Generator: Adobe Illustrator 18.1.1, SVG Export Plug-In . SVG Version: 6.00 Build 0)  -->
<svg version="1.1" id="Layer_1" xmlns="http://www.w3.org/2000/svg" xmlns:xlink="http://www.w3.org/1999/xlink" x="0px" y="0px"
	 viewBox="0 0 17.2 23.4" enable-background="new 0 0 17.2 23.4" xml:space="preserve">
<line fill="none" stroke="#00AEEF" stroke-width="5.000000e-02" stroke-miterlimit="10" x1="0.1" y1="2.5" x2="17.1" y2="2.5"/>
<line fill="none" stroke="#00AEEF" stroke-width="5.000000e-02" stroke-miterlimit="10" x1="0.1" y1="3.6" x2="17.1" y2="3.6"/>
<line fill="none" stroke="#00AEEF" stroke-width="5.000000e-02" stroke-miterlimit="10" x1="0.1" y1="4.8" x2="17.1" y2="4.8"/>
<line fill="none" stroke="#00AEEF" stroke-width="5.000000e-02" stroke-miterlimit="10" x1="0.1" y1="5.9" x2="17.1" y2="5.9"/>
<line fill="none" stroke="#00AEEF" stroke-width="5.000000e-02" stroke-miterlimit="10" x1="0.1" y1="7.1" x2="17.1" y2="7.1"/>
<line fill="none" stroke="#00AEEF" stroke-width="5.000000e-02" stroke-miterlimit="10" x1="0.1" y1="8.2" x2="17.1" y2="8.2"/>
<line fill="none" stroke="#00AEEF" stroke-width="5.000000e-02" stroke-miterlimit="10" x1="0.1" y1="9.3" x2="17.1" y2="9.3"/>
<line fill="none" stroke="#00AEEF" stroke-width="5.000000e-02" stroke-miterlimit="10" x1="0.1" y1="10.5" x2="17.1" y2="10.5"/>
<line fill="none" stroke="#00AEEF" stroke-width="5.000000e-02" stroke-miterlimit="10" x1="0.1" y1="11.6" x2="17.1" y2="11.6"/>
<line fill="none" stroke="#00AEEF" stroke-width="5.000000e-02" stroke-miterlimit="10" x1="0.1" y1="12.8" x2="17.1" y2="12.8"/>
<line fill="none" stroke="#00AEEF" stroke-width="5.000000e-02" stroke-miterlimit="10" x1="0.1" y1="13.9" x2="17.1" y2="13.9"/>
<line fill="none" stroke="#00AEEF" stroke-width="5.000000e-02" stroke-miterlimit="10" x1="0.1" y1="15.1" x2="17.1" y2="15.1"/>
<line fill="none" stroke="#00AEEF" stroke-width="5.000000e-02" stroke-miterlimit="10" x1="0.1" y1="16.2" x2="17.1" y2="16.2"/>
<line fill="none" stroke="#00AEEF" stroke-width="5.000000e-02" stroke-miterlimit="10" x1="0.1" y1="17.3" x2="17.1" y2="17.3"/>
<line fill="none" stroke="#00AEEF" stroke-width="5.000000e-02" stroke-miterlimit="10" x1="0.1" y1="18.5" x2="17.1" y2="18.5"/>
<line fill="none" stroke="#00AEEF" stroke-width="5.000000e-02" stroke-miterlimit="10" x1="0.1" y1="19.6" x2="17.1" y2="19.6"/>
<line fill="none" stroke="#00AEEF" stroke-width="5.000000e-02" stroke-miterlimit="10" x1="0.1" y1="20.8" x2="17.1" y2="20.8"/>
<line fill="none" stroke="#00AEEF" stroke-width="5.000000e-02" stroke-miterlimit="10" x1="0.1" y1="21.9" x2="17.1" y2="21.9"/>
<line fill="none" stroke="#F5A4C7" stroke-width="9.000000e-02" stroke-miterlimit="10" x1="2.3" y1="0.1" x2="2.3" y2="23.4"/>
<rect x="0.1" y="0.1" fill="none" stroke="#000000" stroke-width="8.000000e-02" stroke-miterlimit="10" width="17.1" height="23.2"/>
<circle fill="none" stroke="#000000" stroke-width="3.000000e-02" stroke-miterlimit="10" cx="1.2" cy="4.3" r="0.3"/>
<circle fill="none" stroke="#000000" stroke-width="3.000000e-02" stroke-miterlimit="10" cx="1.2" cy="11.1" r="0.3"/>
<circle fill="none" stroke="#000000" stroke-width="3.000000e-02" stroke-miterlimit="10" cx="1.2" cy="19.1" r="0.3"/>
</svg>
