<?xml version="1.0" encoding="utf-8"?>
<!-- Generator: Adobe Illustrator 18.1.1, SVG Export Plug-In . SVG Version: 6.00 Build 0)  -->
<svg version="1.1" id="Layer_1" xmlns="http://www.w3.org/2000/svg" xmlns:xlink="http://www.w3.org/1999/xlink" x="0px" y="0px"
	 viewBox="0 0 17.8 24" enable-background="new 0 0 17.8 24" xml:space="preserve">
<line fill="none" stroke="#00AEEF" stroke-width="5.000000e-02" stroke-miterlimit="10" x1="0.3" y1="2.7" x2="17.3" y2="2.7"/>
<line fill="none" stroke="#00AEEF" stroke-width="5.000000e-02" stroke-miterlimit="10" x1="0.3" y1="3.8" x2="17.3" y2="3.8"/>
<line fill="none" stroke="#00AEEF" stroke-width="5.000000e-02" stroke-miterlimit="10" x1="0.3" y1="5" x2="17.3" y2="5"/>
<line fill="none" stroke="#00AEEF" stroke-width="5.000000e-02" stroke-miterlimit="10" x1="0.3" y1="6.1" x2="17.3" y2="6.1"/>
<line fill="none" stroke="#00AEEF" stroke-width="5.000000e-02" stroke-miterlimit="10" x1="0.3" y1="7.3" x2="17.3" y2="7.3"/>
<line fill="none" stroke="#00AEEF" stroke-width="5.000000e-02" stroke-miterlimit="10" x1="0.3" y1="8.4" x2="17.3" y2="8.4"/>
<line fill="none" stroke="#00AEEF" stroke-width="5.000000e-02" stroke-miterlimit="10" x1="0.3" y1="9.6" x2="17.3" y2="9.6"/>
<line fill="none" stroke="#00AEEF" stroke-width="5.000000e-02" stroke-miterlimit="10" x1="0.3" y1="10.7" x2="17.3" y2="10.7"/>
<line fill="none" stroke="#00AEEF" stroke-width="5.000000e-02" stroke-miterlimit="10" x1="0.3" y1="11.8" x2="17.3" y2="11.8"/>
<line fill="none" stroke="#00AEEF" stroke-width="5.000000e-02" stroke-miterlimit="10" x1="0.3" y1="13" x2="17.3" y2="13"/>
<line fill="none" stroke="#00AEEF" stroke-width="5.000000e-02" stroke-miterlimit="10" x1="0.3" y1="14.1" x2="17.3" y2="14.1"/>
<line fill="none" stroke="#00AEEF" stroke-width="5.000000e-02" stroke-miterlimit="10" x1="0.3" y1="15.3" x2="17.3" y2="15.3"/>
<line fill="none" stroke="#00AEEF" stroke-width="5.000000e-02" stroke-miterlimit="10" x1="0.3" y1="16.4" x2="17.3" y2="16.4"/>
<line fill="none" stroke="#00AEEF" stroke-width="5.000000e-02" stroke-miterlimit="10" x1="0.3" y1="17.6" x2="17.3" y2="17.6"/>
<line fill="none" stroke="#00AEEF" stroke-width="5.000000e-02" stroke-miterlimit="10" x1="0.3" y1="18.7" x2="17.3" y2="18.7"/>
<line fill="none" stroke="#00AEEF" stroke-width="5.000000e-02" stroke-miterlimit="10" x1="0.3" y1="19.8" x2="17.3" y2="19.8"/>
<line fill="none" stroke="#00AEEF" stroke-width="5.000000e-02" stroke-miterlimit="10" x1="0.3" y1="21" x2="17.3" y2="21"/>
<line fill="none" stroke="#00AEEF" stroke-width="5.000000e-02" stroke-miterlimit="10" x1="0.3" y1="22.1" x2="17.3" y2="22.1"/>
<line fill="none" stroke="#F5A4C7" stroke-width="9.000000e-02" stroke-miterlimit="10" x1="2.5" y1="0.3" x2="2.5" y2="23.6"/>
<rect x="0.3" y="0.3" fill="none" stroke="#000000" stroke-width="8.000000e-02" stroke-miterlimit="10" width="17.1" height="23.2"/>
<circle fill="none" stroke="#000000" stroke-width="3.000000e-02" stroke-miterlimit="10" cx="1.4" cy="4.5" r="0.3"/>
<circle fill="none" stroke="#000000" stroke-width="3.000000e-02" stroke-miterlimit="10" cx="1.4" cy="11.3" r="0.3"/>
<circle fill="none" stroke="#000000" stroke-width="3.000000e-02" stroke-miterlimit="10" cx="1.4" cy="19.3" r="0.3"/>
</svg>
