<?xml version="1.0" encoding="utf-8"?>
<!-- Generator: Adobe Illustrator 19.2.1, SVG Export Plug-In . SVG Version: 6.00 Build 0)  -->
<svg version="1.1" id="Layer_1" xmlns="http://www.w3.org/2000/svg" xmlns:xlink="http://www.w3.org/1999/xlink" x="0px" y="0px"
	 viewBox="0 0 792 612" enable-background="new 0 0 792 612" xml:space="preserve">
<polygon fill="#EE2817" points="306.8,163.9 324.6,22.3 324.6,165 360.1,26.7 342.1,168.3 394.6,35.6 359.1,173.8 427.8,48.8 
	375.3,181.4 459.1,66 390.3,191 488,87 404.1,202.4 514,111.4 416.3,215.4 536.8,138.9 426.8,229.8 555.9,169 435.4,245.5 
	571.1,201.3 442,262.1 582.1,235.3 446.4,279.4 588.8,270.4 448.7,297.1 591.1,306 448.7,314.9 588.8,341.6 446.4,332.6 
	582.1,376.7 442,349.9 571.1,410.7 435.4,366.5 555.9,443 426.8,382.2 536.8,473.1 416.3,396.6 514,500.6 404.1,409.6 488,525 
	390.3,421 459.1,546 375.3,430.6 427.8,563.2 359.1,438.2 394.6,576.4 342.1,443.7 360.1,585.3 324.6,447 324.6,589.7 306.8,448.1 
	288.9,589.7 289,447 253.5,585.3 271.4,443.7 218.9,576.4 254.5,438.2 185.7,563.2 238.3,430.6 154.5,546 223.2,421 125.6,525 
	209.5,409.6 99.6,500.6 197.3,396.6 76.8,473.1 186.8,382.2 57.7,443 178.2,366.5 42.5,410.7 171.6,349.9 31.4,376.7 167.2,332.6 
	24.7,341.6 164.9,314.9 22.5,306 164.9,297.1 24.7,270.4 167.2,279.4 31.4,235.3 171.6,262.1 42.5,201.3 178.2,245.5 57.7,169 
	186.8,229.8 76.8,138.9 197.3,215.4 99.6,111.4 209.5,202.4 125.6,87 223.2,191 154.5,66 238.3,181.4 185.7,48.8 254.5,173.8 
	218.9,35.6 271.4,168.3 253.5,26.7 289,165 288.9,22.3 "/>
</svg>
