<?xml version="1.0" encoding="utf-8"?>
<!-- Generator: Adobe Illustrator 18.1.1, SVG Export Plug-In . SVG Version: 6.00 Build 0)  -->
<svg version="1.1" id="Layer_1" xmlns="http://www.w3.org/2000/svg" xmlns:xlink="http://www.w3.org/1999/xlink" x="0px" y="0px"
	 viewBox="0 0 40 40" enable-background="new 0 0 40 40" xml:space="preserve">
<path fill="none" stroke="#4285F4" stroke-width="7.200000e-02" stroke-miterlimit="10" d="M-12.1,9.4"/>
<path fill="none" stroke="#FFFFFF" stroke-width="1.44" stroke-miterlimit="10" d="M11.5,12.4c0.1-0.2,0.1-0.4,0.2-0.6
	c0.3-1.1,0.5-2.2,1.2-3.2c1.5-2.2,4.5-2.8,7.1-3c2.1-0.2,4.2-0.3,6.2,0.2s4,1.4,5.3,3c2.2,2.9,1.7,7.2-0.2,10.3
	c-0.9,1.4-2.1,2.7-3.7,3.1c-0.4,0.1-0.8,0.1-1.1,0.4c-0.3,0.2-0.4,0.6-0.5,1c-1.3,4.5,0.6,9.6,4.4,12.3"/>
<path fill="none" stroke="#FFFFFF" stroke-width="1.44" stroke-miterlimit="10" d="M5.4,32.3c1.7,0.4,3.5,0.7,5.1,0
	c1.6-0.7,2.7-2.4,3.1-4.1s0.3-3.5,0.1-5.3c-1.3,0.1-2.6,0.2-3.9,0.3c-0.5-1.8,0-3.6,0.4-5.4c0.3-1.1,0.5-2.1,0.8-3.2"/>
<path fill="none" stroke="#FFFFFF" stroke-width="1.44" stroke-miterlimit="10" d="M10.2,18c1.5,1,3.7,1.4,5.4,0.9"/>
<g>
	<g>
		<path fill="#F5BA14" d="M55.2,7.9c3.9,2.4,8.3,3.7,12.9,3.2c0.7-0.1,1.5-0.4,2.1-0.4c2,0.2,1.3,0.4,1.1,2.4
			c-0.4,3.4-0.7,6.7-1.7,10c1.5,0.2,3.1,0.4,4.6,0.6c0.1-2.6,3-18.4-3.9-15.9c-2.9,1-3.1,5.8-3.4,8.3c-0.1,0.8,0.1,1.9-0.1,2.7
			c-0.6,2.1-0.9,1.8-2.7,1.7c-2.1-0.1-5.8-1-6.6-2.7c-1.2-2.6,4.6-16.7-3.1-14.4c-5.7,1.7-7.7,10.9-6,15.8c0.6,1.9,3.2,2.4,4.3,0.6
			c0.9-1.5,1.2-3,1.5-4.7c0.5-3,2.2-3.2,4.7-4.4c-1.1-0.5-2.3-0.9-3.4-1.4c0.9,3,0,6.2-0.1,9.3c0,1,0.7,2.1,1.7,2.3
			c3.4,0.6,11,3.3,12.6-1.1c1.1-3,0.5-9.8-3.1-10.8C65,8.5,61.4,8.6,60,9.3c-1.8,0.8-1.9,2.2-2,4.1c-0.1,1.6-0.3,3.9,0.9,5.1
			c1.7,1.8,4.1,0.1,6.1,0.8c1.6,0.6,3.5-1.3,2.9-2.9c-1-2.5-1.3-4.5-4-5.3c-1.3-0.4-2.6-0.3-3.9,0c-1.2,0.3-3.6,2.3-2.8,0.1
			c1.1-2.8-3.4-4-4.5-1.2c-1,2.5-0.6,5.8,1.8,7.4c3.1,1.9,7.4-3.5,8.9,0.3c1-1,1.9-1.9,2.9-2.9c-2.4-0.9-4.9,1.1-3.4-2.6
			c-0.5,0.5-1.1,1.1-1.6,1.6c0.4-0.1,3.2-0.5,3.6-0.1c0.8,0.7,0.4,4.4,0.1,5.2c0.5-0.5,1.1-1.1,1.6-1.6c-2.5,0.6-5.9-0.5-8.3-1
			c0.6,0.8,1.1,1.5,1.7,2.3c0.1-3.7,1.1-6.9,0-10.5c-0.5-1.5-2.1-2.1-3.4-1.4c-2.2,1.1-3.9,0.8-5.4,3c-1.6,2.4-1,5.3-2.4,7.7
			c1.4,0.2,2.9,0.4,4.3,0.6c-0.8-2.5-0.5-3.9,0.6-6.4c0.3-0.7,1.6-3.8,2-3.6c-0.5-0.5-1.1-1.1-1.6-1.6c0.7,4.6-4,11.2-0.9,15.2
			c1.1,1.4,2.9,1.8,4.6,2.2c2.5,0.7,5.6,1.7,8.3,1.8c3.8,0.2,5.4-2.6,5.6-6.1c0.1-1.6,0.7-4.2,0.5-5.7c0.1-0.5,0.2-1.1,0.4-1.6
			c-2.2-1.6-3-1.3-2.6,0.9c-1.1,2.6-0.3,7.9-0.3,10.6c-0.1,2.7,3.8,3.1,4.6,0.6c1.1-3.4,1.4-6.9,1.8-10.4c0.3-2.4,1.1-5-0.8-6.9
			c-1.4-1.4-3-1.3-4.9-1.2c-4.9,0.5-8.2,0.7-12.6-2C55,2.3,52.6,6.3,55.2,7.9L55.2,7.9z"/>
	</g>
</g>
<path fill="none" stroke="#FFFFFF" stroke-width="1.44" stroke-miterlimit="10" d="M14.8,12.3c0,0-7.8-0.2-4.9,1.6s4.1,2.4,4.1,2.4"
	/>
<circle fill="#231F20" stroke="#FFFFFF" stroke-width="1.44" stroke-miterlimit="10" cx="13.9" cy="10.4" r="0.3"/>
<circle fill="#231F20" stroke="#FFFFFF" stroke-width="1.44" stroke-miterlimit="10" cx="18.3" cy="10.7" r="0.3"/>
<path fill="none" stroke="#231F20" stroke-width="0.1008" stroke-miterlimit="10" d="M-23.2-0.1c0.5-0.8,0.8-1.8,0.9-2.7
	c0.1-0.5,0-1.1-0.2-1.5c-0.2-0.5-0.6-0.8-1-1.1c-2-2-2.8-5.3-1.2-7.7c1-1.5,2.9-2.4,4.7-2.7c0.7-0.1,1.5-0.2,2.2,0
	c0.7,0.2,1.3,0.6,1.8,1c1.8,1.6,1.9,3.9,2.7,6c0.3,0.8,0.5,1.7,0.3,2.6c0,0.1-0.1,0.2-0.1,0.3c-0.1,0.1-0.2,0.1-0.3,0.2
	c-0.4,0.2-0.7,0.4-1.1,0.7c-0.8,0.5-1.7,1-2.7,0.9c0.6,1.8,1.6,3.4,3.1,4.5"/>
<circle fill="#231F20" stroke="#231F20" stroke-width="7.200000e-02" stroke-miterlimit="10" cx="-18.3" cy="-12.1" r="0.2"/>
<circle fill="#231F20" stroke="#231F20" stroke-width="7.200000e-02" stroke-miterlimit="10" cx="-15.5" cy="-12.7" r="0.2"/>
<path fill="none" stroke="#231F20" stroke-width="7.200000e-02" stroke-miterlimit="10" d="M-13.2-8.6c-1.2,0.6-2.5,0.9-3.9,1
	c-0.6,0-1.3,0-1.8-0.3c-0.6-0.3-1-0.8-1.1-1.4"/>
<path fill="none" stroke="#231F20" stroke-width="7.200000e-02" stroke-miterlimit="10" d="M-16.4-11.2c0,0,1.7-0.1,1.5,0.5
	c-0.2,0.6-0.8,1-0.8,1"/>
<g>
	<g>
		<path fill="#4285F4" d="M-14,3.7c1.4,0.1,3,3.7,3.3,4.7c0.6,1.6,1.3,3.9,0.9,5.6c0.4-0.5,0.8-1.1,1.2-1.6
			c-3.3,1.7-9.1,1.1-12.5,0.1c-2.4-0.7-2.1-1.5-2.1-3.7c0-2.1-0.4-4.7,1-6.4c-0.5,0.4-1.1,0.8-1.6,1.2c1.8-0.3,4.5,0.4,6,1.3
			c1,0.6,1.7,1.3,2.3,2.4c0.3,0.5,1.9,3.5,1.6,3.9c-0.2,0.4-5.9-0.4-6.3-0.6c-1.7-0.9-2.2-3.9-1.6-5.8c-0.4,0.5-0.8,1.1-1.2,1.6
			c2.3-1.1,7.1,3.3,8.3,4.9c1.3,1.8,1.9,3.3,3.8,4.5c0.5-1.7,0.9-3.4,1.4-5c-2.6-0.1-4.9-1.6-7.5-2.1c-2.1-0.4-5.3,0.4-4-2.5
			c-0.5,0.4-1.1,0.8-1.6,1.2c2-0.7,4.7,3.9,5.8,4.9c0.9-1.5,1.8-3,2.6-4.5c-2.4-0.4-4.3-1.3-6-3c-2.5-2.5-6.3,1.4-3.8,3.8
			c2.3,2.4,5.1,3.8,8.4,4.4c2.4,0.4,4.8-2.5,2.6-4.5c-2.7-2.4-4.4-6.1-8.4-6.6c-3.6-0.5-5.1,2.3-5.5,5.5c-0.5,3.6,2.2,5.7,5.5,6.3
			c1.9,0.3,3.7,0.3,5.5,1c2.2,0.7,4,1.4,6.3,1.6c2.8,0.1,3.5-3.7,1.4-5C-9.1,10.5-9.6,9-10.3,8c-0.8-1-1.7-1.8-2.6-2.6
			c-2-1.6-4.1-3.2-6.6-4c-4.8-1.4-8,0.5-7.7,5.5c0.3,5.2,2.2,8.3,7.4,9.1c4,0.5,9.7,1.8,10.8-3.4c1-4.4-2-10.3-5.9-12.4
			c-3.1-1.7-9.9-3.8-12.3-0.3c-1.5,2.2-1.4,5.1-1.4,7.6c0,2.1-0.4,5.1,0.7,7.1c2.4,4.1,10.7,4.3,14.7,4c2.3-0.2,6.1-0.2,7.8-2
			c1.5-1.6,1-4.2,0.7-6.1C-5.3,5.7-8.5-1.4-14-1.7C-17.5-1.9-17.5,3.5-14,3.7L-14,3.7z"/>
	</g>
</g>
</svg>
