<?xml version="1.0" encoding="utf-8"?>
<!-- Generator: Adobe Illustrator 18.1.1, SVG Export Plug-In . SVG Version: 6.00 Build 0)  -->
<svg version="1.1" id="Layer_1" xmlns="http://www.w3.org/2000/svg" xmlns:xlink="http://www.w3.org/1999/xlink" x="0px" y="0px"
	 viewBox="0 0 40 40" enable-background="new 0 0 40 40" xml:space="preserve">
<path fill="none" stroke="#FFFFFF" stroke-width="0.72" stroke-miterlimit="10" d="M-0.2,19.9c2.4-0.2,4.5,1.4,6.4,3
	c2,1.6,3.9,3.2,5.9,4.8c1.1,0.9,2.3,1.9,3.8,1.9c1.4,0.1,2.7-0.7,3.8-1.7c2.2-2,3.8-4.7,4.4-7.7c0.6-2.9,0.1-6.1-1.2-8.8
	c-0.5-1-1.2-2-2.2-2.6c-1.1-0.6-2.4-0.6-3.6-0.6c-0.6,0-1.2,0-1.7,0.3c-0.7,0.4-1.1,1.1-1.3,1.8c-1.1,3.3,0.1,7.2,2.9,9.3
	c3,2.3,7.2,2.4,11,2.1c3.2-0.2,6.4-0.6,9.6-1.1c1.1-0.2,2.1-0.3,3.1-0.7"/>
</svg>
