<?xml version="1.0" encoding="utf-8"?>
<!-- Generator: Adobe Illustrator 18.1.1, SVG Export Plug-In . SVG Version: 6.00 Build 0)  -->
<svg version="1.1" id="Layer_1" xmlns="http://www.w3.org/2000/svg" xmlns:xlink="http://www.w3.org/1999/xlink" x="0px" y="0px"
	 viewBox="0 0 1000 10000" enable-background="new 0 0 1000 10000" xml:space="preserve">
<line fill="none" stroke="#000000" stroke-width="4" stroke-miterlimit="10" x1="7.9" y1="0" x2="7.9" y2="10185.9"/>
<line fill="none" stroke="#000000" stroke-width="4" stroke-miterlimit="10" x1="17.8" y1="0" x2="17.8" y2="10185.9"/>
<line fill="none" stroke="#000000" stroke-width="4" stroke-miterlimit="10" x1="27.7" y1="0" x2="27.7" y2="10185.9"/>
<line fill="none" stroke="#000000" stroke-width="4" stroke-miterlimit="10" x1="37.6" y1="0" x2="37.6" y2="10185.9"/>
<line fill="none" stroke="#000000" stroke-width="4" stroke-miterlimit="10" x1="47.5" y1="0" x2="47.5" y2="10185.9"/>
<line fill="none" stroke="#000000" stroke-width="4" stroke-miterlimit="10" x1="57.4" y1="0" x2="57.4" y2="10185.9"/>
<line fill="none" stroke="#000000" stroke-width="4" stroke-miterlimit="10" x1="67.3" y1="0" x2="67.3" y2="10185.9"/>
<line fill="none" stroke="#000000" stroke-width="4" stroke-miterlimit="10" x1="77.2" y1="0" x2="77.2" y2="10185.9"/>
<line fill="none" stroke="#000000" stroke-width="4" stroke-miterlimit="10" x1="87.1" y1="0" x2="87.1" y2="10185.9"/>
<line fill="none" stroke="#000000" stroke-width="4" stroke-miterlimit="10" x1="97" y1="0" x2="97" y2="10185.9"/>
<line fill="none" stroke="#000000" stroke-width="4" stroke-miterlimit="10" x1="106.9" y1="0" x2="106.9" y2="10185.9"/>
<line fill="none" stroke="#000000" stroke-width="4" stroke-miterlimit="10" x1="116.8" y1="0" x2="116.8" y2="10185.9"/>
<line fill="none" stroke="#000000" stroke-width="4" stroke-miterlimit="10" x1="126.6" y1="0" x2="126.6" y2="10185.9"/>
<line fill="none" stroke="#000000" stroke-width="4" stroke-miterlimit="10" x1="136.5" y1="0" x2="136.5" y2="10185.9"/>
<line fill="none" stroke="#000000" stroke-width="4" stroke-miterlimit="10" x1="146.4" y1="0" x2="146.4" y2="10185.9"/>
<line fill="none" stroke="#000000" stroke-width="4" stroke-miterlimit="10" x1="156.3" y1="0" x2="156.3" y2="10185.9"/>
<line fill="none" stroke="#000000" stroke-width="4" stroke-miterlimit="10" x1="166.2" y1="0" x2="166.2" y2="10185.9"/>
<line fill="none" stroke="#000000" stroke-width="4" stroke-miterlimit="10" x1="176.1" y1="0" x2="176.1" y2="10185.9"/>
<line fill="none" stroke="#000000" stroke-width="4" stroke-miterlimit="10" x1="186" y1="0" x2="186" y2="10185.9"/>
<line fill="none" stroke="#000000" stroke-width="4" stroke-miterlimit="10" x1="195.9" y1="0" x2="195.9" y2="10185.9"/>
<line fill="none" stroke="#000000" stroke-width="4" stroke-miterlimit="10" x1="205.8" y1="0" x2="205.8" y2="10185.9"/>
<line fill="none" stroke="#000000" stroke-width="4" stroke-miterlimit="10" x1="215.7" y1="0" x2="215.7" y2="10185.9"/>
<line fill="none" stroke="#000000" stroke-width="4" stroke-miterlimit="10" x1="225.6" y1="0" x2="225.6" y2="10185.9"/>
<line fill="none" stroke="#000000" stroke-width="4" stroke-miterlimit="10" x1="235.5" y1="0" x2="235.5" y2="10185.9"/>
<line fill="none" stroke="#000000" stroke-width="4" stroke-miterlimit="10" x1="245.3" y1="0" x2="245.3" y2="10185.9"/>
<line fill="none" stroke="#000000" stroke-width="4" stroke-miterlimit="10" x1="255.2" y1="0" x2="255.2" y2="10185.9"/>
<line fill="none" stroke="#000000" stroke-width="4" stroke-miterlimit="10" x1="265.1" y1="0" x2="265.1" y2="10185.9"/>
<line fill="none" stroke="#000000" stroke-width="4" stroke-miterlimit="10" x1="275" y1="0" x2="275" y2="10185.9"/>
<line fill="none" stroke="#000000" stroke-width="4" stroke-miterlimit="10" x1="284.9" y1="0" x2="284.9" y2="10185.9"/>
<line fill="none" stroke="#000000" stroke-width="4" stroke-miterlimit="10" x1="294.8" y1="0" x2="294.8" y2="10185.9"/>
<line fill="none" stroke="#000000" stroke-width="4" stroke-miterlimit="10" x1="304.7" y1="0" x2="304.7" y2="10185.9"/>
<line fill="none" stroke="#000000" stroke-width="4" stroke-miterlimit="10" x1="314.6" y1="0" x2="314.6" y2="10185.9"/>
<line fill="none" stroke="#000000" stroke-width="4" stroke-miterlimit="10" x1="324.5" y1="0" x2="324.5" y2="10185.9"/>
<line fill="none" stroke="#000000" stroke-width="4" stroke-miterlimit="10" x1="334.4" y1="0" x2="334.4" y2="10185.9"/>
<line fill="none" stroke="#000000" stroke-width="4" stroke-miterlimit="10" x1="344.3" y1="0" x2="344.3" y2="10185.9"/>
<line fill="none" stroke="#000000" stroke-width="4" stroke-miterlimit="10" x1="354.2" y1="0" x2="354.2" y2="10185.9"/>
<line fill="none" stroke="#000000" stroke-width="4" stroke-miterlimit="10" x1="364" y1="0" x2="364" y2="10185.9"/>
<line fill="none" stroke="#000000" stroke-width="4" stroke-miterlimit="10" x1="373.9" y1="0" x2="373.9" y2="10185.9"/>
<line fill="none" stroke="#000000" stroke-width="4" stroke-miterlimit="10" x1="383.8" y1="0" x2="383.8" y2="10185.9"/>
<line fill="none" stroke="#000000" stroke-width="4" stroke-miterlimit="10" x1="393.7" y1="0" x2="393.7" y2="10185.9"/>
<line fill="none" stroke="#000000" stroke-width="4" stroke-miterlimit="10" x1="403.6" y1="0" x2="403.6" y2="10185.9"/>
<line fill="none" stroke="#000000" stroke-width="4" stroke-miterlimit="10" x1="413.5" y1="0" x2="413.5" y2="10185.9"/>
<line fill="none" stroke="#000000" stroke-width="4" stroke-miterlimit="10" x1="423.4" y1="0" x2="423.4" y2="10185.9"/>
<line fill="none" stroke="#000000" stroke-width="4" stroke-miterlimit="10" x1="433.3" y1="0" x2="433.3" y2="10185.9"/>
<line fill="none" stroke="#000000" stroke-width="4" stroke-miterlimit="10" x1="443.2" y1="0" x2="443.2" y2="10185.9"/>
<line fill="none" stroke="#000000" stroke-width="4" stroke-miterlimit="10" x1="453.1" y1="0" x2="453.1" y2="10185.9"/>
<line fill="none" stroke="#000000" stroke-width="4" stroke-miterlimit="10" x1="463" y1="0" x2="463" y2="10185.9"/>
<line fill="none" stroke="#000000" stroke-width="4" stroke-miterlimit="10" x1="472.9" y1="0" x2="472.9" y2="10185.9"/>
<line fill="none" stroke="#000000" stroke-width="4" stroke-miterlimit="10" x1="482.7" y1="0" x2="482.7" y2="10185.9"/>
<line fill="none" stroke="#000000" stroke-width="4" stroke-miterlimit="10" x1="492.6" y1="0" x2="492.6" y2="10185.9"/>
<line fill="none" stroke="#000000" stroke-width="4" stroke-miterlimit="10" x1="502.5" y1="0" x2="502.5" y2="10185.9"/>
<line fill="none" stroke="#000000" stroke-width="4" stroke-miterlimit="10" x1="512.4" y1="0" x2="512.4" y2="10185.9"/>
<line fill="none" stroke="#000000" stroke-width="4" stroke-miterlimit="10" x1="522.3" y1="0" x2="522.3" y2="10185.9"/>
<line fill="none" stroke="#000000" stroke-width="4" stroke-miterlimit="10" x1="532.2" y1="0" x2="532.2" y2="10185.9"/>
<line fill="none" stroke="#000000" stroke-width="4" stroke-miterlimit="10" x1="542.1" y1="0" x2="542.1" y2="10185.9"/>
<line fill="none" stroke="#000000" stroke-width="4" stroke-miterlimit="10" x1="552" y1="0" x2="552" y2="10185.9"/>
<line fill="none" stroke="#000000" stroke-width="4" stroke-miterlimit="10" x1="561.9" y1="0" x2="561.9" y2="10185.9"/>
<line fill="none" stroke="#000000" stroke-width="4" stroke-miterlimit="10" x1="571.8" y1="0" x2="571.8" y2="10185.9"/>
<line fill="none" stroke="#000000" stroke-width="4" stroke-miterlimit="10" x1="581.7" y1="0" x2="581.7" y2="10185.9"/>
<line fill="none" stroke="#000000" stroke-width="4" stroke-miterlimit="10" x1="591.6" y1="0" x2="591.6" y2="10185.9"/>
<line fill="none" stroke="#000000" stroke-width="4" stroke-miterlimit="10" x1="601.4" y1="0" x2="601.4" y2="10185.9"/>
<line fill="none" stroke="#000000" stroke-width="4" stroke-miterlimit="10" x1="611.3" y1="0" x2="611.3" y2="10185.9"/>
<line fill="none" stroke="#000000" stroke-width="4" stroke-miterlimit="10" x1="621.2" y1="0" x2="621.2" y2="10185.9"/>
<line fill="none" stroke="#000000" stroke-width="4" stroke-miterlimit="10" x1="631.1" y1="0" x2="631.1" y2="10185.9"/>
<line fill="none" stroke="#000000" stroke-width="4" stroke-miterlimit="10" x1="641" y1="0" x2="641" y2="10185.9"/>
<line fill="none" stroke="#000000" stroke-width="4" stroke-miterlimit="10" x1="650.9" y1="0" x2="650.9" y2="10185.9"/>
<line fill="none" stroke="#000000" stroke-width="4" stroke-miterlimit="10" x1="660.8" y1="0" x2="660.8" y2="10185.9"/>
<line fill="none" stroke="#000000" stroke-width="4" stroke-miterlimit="10" x1="670.7" y1="0" x2="670.7" y2="10185.9"/>
<line fill="none" stroke="#000000" stroke-width="4" stroke-miterlimit="10" x1="680.6" y1="0" x2="680.6" y2="10185.9"/>
<line fill="none" stroke="#000000" stroke-width="4" stroke-miterlimit="10" x1="690.5" y1="0" x2="690.5" y2="10185.9"/>
<line fill="none" stroke="#000000" stroke-width="4" stroke-miterlimit="10" x1="700.4" y1="0" x2="700.4" y2="10185.9"/>
<line fill="none" stroke="#000000" stroke-width="4" stroke-miterlimit="10" x1="710.3" y1="0" x2="710.3" y2="10185.9"/>
<line fill="none" stroke="#000000" stroke-width="4" stroke-miterlimit="10" x1="720.1" y1="0" x2="720.1" y2="10185.9"/>
<line fill="none" stroke="#000000" stroke-width="4" stroke-miterlimit="10" x1="730" y1="0" x2="730" y2="10185.9"/>
<line fill="none" stroke="#000000" stroke-width="4" stroke-miterlimit="10" x1="739.9" y1="0" x2="739.9" y2="10185.9"/>
<line fill="none" stroke="#000000" stroke-width="4" stroke-miterlimit="10" x1="749.8" y1="0" x2="749.8" y2="10185.9"/>
<line fill="none" stroke="#000000" stroke-width="4" stroke-miterlimit="10" x1="759.7" y1="0" x2="759.7" y2="10185.9"/>
<line fill="none" stroke="#000000" stroke-width="4" stroke-miterlimit="10" x1="769.6" y1="0" x2="769.6" y2="10185.9"/>
<line fill="none" stroke="#000000" stroke-width="4" stroke-miterlimit="10" x1="779.5" y1="0" x2="779.5" y2="10185.9"/>
<line fill="none" stroke="#000000" stroke-width="4" stroke-miterlimit="10" x1="789.4" y1="0" x2="789.4" y2="10185.9"/>
<line fill="none" stroke="#000000" stroke-width="4" stroke-miterlimit="10" x1="799.3" y1="0" x2="799.3" y2="10185.9"/>
<line fill="none" stroke="#000000" stroke-width="4" stroke-miterlimit="10" x1="809.2" y1="0" x2="809.2" y2="10185.9"/>
<line fill="none" stroke="#000000" stroke-width="4" stroke-miterlimit="10" x1="819.1" y1="0" x2="819.1" y2="10185.9"/>
<line fill="none" stroke="#000000" stroke-width="4" stroke-miterlimit="10" x1="829" y1="0" x2="829" y2="10185.9"/>
<line fill="none" stroke="#000000" stroke-width="4" stroke-miterlimit="10" x1="838.8" y1="0" x2="838.8" y2="10185.9"/>
<line fill="none" stroke="#000000" stroke-width="4" stroke-miterlimit="10" x1="848.7" y1="0" x2="848.7" y2="10185.9"/>
<line fill="none" stroke="#000000" stroke-width="4" stroke-miterlimit="10" x1="858.6" y1="0" x2="858.6" y2="10185.9"/>
<line fill="none" stroke="#000000" stroke-width="4" stroke-miterlimit="10" x1="868.5" y1="0" x2="868.5" y2="10185.9"/>
<line fill="none" stroke="#000000" stroke-width="4" stroke-miterlimit="10" x1="878.4" y1="0" x2="878.4" y2="10185.9"/>
<line fill="none" stroke="#000000" stroke-width="4" stroke-miterlimit="10" x1="888.3" y1="0" x2="888.3" y2="10185.9"/>
<line fill="none" stroke="#000000" stroke-width="4" stroke-miterlimit="10" x1="898.2" y1="0" x2="898.2" y2="10185.9"/>
<line fill="none" stroke="#000000" stroke-width="4" stroke-miterlimit="10" x1="908.1" y1="0" x2="908.1" y2="10185.9"/>
<line fill="none" stroke="#000000" stroke-width="4" stroke-miterlimit="10" x1="918" y1="0" x2="918" y2="10185.9"/>
<line fill="none" stroke="#000000" stroke-width="4" stroke-miterlimit="10" x1="927.9" y1="0" x2="927.9" y2="10185.9"/>
<line fill="none" stroke="#000000" stroke-width="4" stroke-miterlimit="10" x1="937.8" y1="0" x2="937.8" y2="10185.9"/>
<line fill="none" stroke="#000000" stroke-width="4" stroke-miterlimit="10" x1="947.7" y1="0" x2="947.7" y2="10185.9"/>
<line fill="none" stroke="#000000" stroke-width="4" stroke-miterlimit="10" x1="957.6" y1="0" x2="957.6" y2="10185.9"/>
<line fill="none" stroke="#000000" stroke-width="4" stroke-miterlimit="10" x1="967.4" y1="0" x2="967.4" y2="10185.9"/>
<line fill="none" stroke="#000000" stroke-width="4" stroke-miterlimit="10" x1="977.3" y1="0" x2="977.3" y2="10185.9"/>
<line fill="none" stroke="#000000" stroke-width="4" stroke-miterlimit="10" x1="987.2" y1="0" x2="987.2" y2="10185.9"/>
<line fill="none" stroke="#000000" stroke-width="4" stroke-miterlimit="10" x1="997.1" y1="0" x2="997.1" y2="10185.9"/>
<line fill="none" stroke="#000000" stroke-width="4" stroke-miterlimit="10" x1="1007" y1="0" x2="1007" y2="10185.9"/>
<line fill="none" stroke="#000000" stroke-width="4" stroke-miterlimit="10" x1="1016.9" y1="0" x2="1016.9" y2="10185.9"/>
<line fill="none" stroke="#000000" stroke-width="4" stroke-miterlimit="10" x1="1026.8" y1="0" x2="1026.8" y2="10185.9"/>
<line fill="none" stroke="#000000" stroke-width="4" stroke-miterlimit="10" x1="1036.7" y1="0" x2="1036.7" y2="10185.9"/>
<line fill="none" stroke="#000000" stroke-width="4" stroke-miterlimit="10" x1="1046.6" y1="0" x2="1046.6" y2="10185.9"/>
<line fill="none" stroke="#000000" stroke-width="4" stroke-miterlimit="10" x1="1056.5" y1="0" x2="1056.5" y2="10185.9"/>
<line fill="none" stroke="#000000" stroke-width="4" stroke-miterlimit="10" x1="1066.4" y1="0" x2="1066.4" y2="10185.9"/>
<line fill="none" stroke="#000000" stroke-width="4" stroke-miterlimit="10" x1="1076.3" y1="0" x2="1076.3" y2="10185.9"/>
<line fill="none" stroke="#000000" stroke-width="4" stroke-miterlimit="10" x1="1086.1" y1="0" x2="1086.1" y2="10185.9"/>
<line fill="none" stroke="#000000" stroke-width="4" stroke-miterlimit="10" x1="1096" y1="0" x2="1096" y2="10185.9"/>
<line fill="none" stroke="#000000" stroke-width="4" stroke-miterlimit="10" x1="1105.9" y1="0" x2="1105.9" y2="10185.9"/>
<line fill="none" stroke="#000000" stroke-width="4" stroke-miterlimit="10" x1="1115.8" y1="0" x2="1115.8" y2="10185.9"/>
<line fill="none" stroke="#000000" stroke-width="4" stroke-miterlimit="10" x1="1125.7" y1="0" x2="1125.7" y2="10185.9"/>
<line fill="none" stroke="#000000" stroke-width="4" stroke-miterlimit="10" x1="1135.6" y1="0" x2="1135.6" y2="10185.9"/>
<line fill="none" stroke="#000000" stroke-width="4" stroke-miterlimit="10" x1="1145.5" y1="0" x2="1145.5" y2="10185.9"/>
<line fill="none" stroke="#000000" stroke-width="4" stroke-miterlimit="10" x1="1155.4" y1="0" x2="1155.4" y2="10185.9"/>
<line fill="none" stroke="#000000" stroke-width="4" stroke-miterlimit="10" x1="1165.3" y1="0" x2="1165.3" y2="10185.9"/>
<line fill="none" stroke="#000000" stroke-width="4" stroke-miterlimit="10" x1="1175.2" y1="0" x2="1175.2" y2="10185.9"/>
<line fill="none" stroke="#000000" stroke-width="4" stroke-miterlimit="10" x1="1185.1" y1="0" x2="1185.1" y2="10185.9"/>
</svg>
